<svg width="24" height="24" viewBox="0 0 24 24" fill="none" xmlns="http://www.w3.org/2000/svg">
<path d="M4.03004 19H2C2 15.6863 4.72665 13 8.09013 13C11.4536 13 14.1803 15.6863 14.1803 19H12.1502C12.1502 16.7909 10.3325 15 8.09013 15C5.84781 15 4.03004 16.7909 4.03004 19ZM16.2042 15.41L13.4576 12.71L14.8908 11.292L16.2022 12.584L20.5668 8.292L22 9.708L16.2022 15.408L16.2042 15.41ZM8.09013 12C5.84781 12 4.03004 10.2091 4.03004 8C4.03004 5.79086 5.84781 4 8.09013 4C10.3325 4 12.1502 5.79086 12.1502 8C12.1474 10.208 10.3313 11.9972 8.09013 12ZM8.09013 6C6.98112 6.00111 6.07825 6.87885 6.06235 7.97134C6.04646 9.06383 6.92343 9.9667 8.03196 9.99912C9.14049 10.0315 10.0703 9.1815 10.1202 8.09V8.49V8C10.1202 6.89543 9.2113 6 8.09013 6Z" fill="#2E2C2F"/>
</svg>
