<svg width="24" height="24" viewBox="0 0 24 24" fill="none" xmlns="http://www.w3.org/2000/svg">
<path d="M4.02974 19H2C2 15.6863 4.72623 13 8.08921 13C11.4522 13 14.1784 15.6863 14.1784 19H12.1487C12.1487 16.7909 10.3312 15 8.08921 15C5.84722 15 4.02974 16.7909 4.02974 19ZM20.566 15.706L18.2379 13.413L15.9108 15.706L14.4758 14.292L16.8018 12L14.4758 9.707L15.9108 8.293L18.2379 10.586L20.565 8.293L22 9.707L19.6729 12L22 14.293L20.566 15.706ZM8.08921 12C5.84722 12 4.02974 10.2091 4.02974 8C4.02974 5.79086 5.84722 4 8.08921 4C10.3312 4 12.1487 5.79086 12.1487 8C12.1459 10.208 10.33 11.9972 8.08921 12ZM8.08921 6C6.98036 6.00111 6.07763 6.87885 6.06174 7.97134C6.04585 9.06383 6.92268 9.9667 8.03104 9.99912C9.13941 10.0315 10.069 9.1815 10.1189 8.09V8.49V8C10.1189 6.89543 9.2102 6 8.08921 6Z" fill="#2E2C2F"/>
</svg>
