<svg width="25" height="25" viewBox="0 0 25 25" fill="none" xmlns="http://www.w3.org/2000/svg">
<path d="M12.5 22.9167L9.375 19.7917H5.20833C4.05774 19.7917 3.125 18.8589 3.125 17.7083V4.16666C3.125 3.01607 4.05774 2.08333 5.20833 2.08333H19.7917C20.9423 2.08333 21.875 3.01607 21.875 4.16666V17.7083C21.875 18.8589 20.9423 19.7917 19.7917 19.7917H15.625L12.5 22.9167ZM5.20833 4.16666V17.7083H10.4167L12.5 19.7917L14.5833 17.7083H19.7917V4.16666H5.20833ZM16.6667 15.6104H8.33333V15.2083C8.45661 13.0261 10.3169 11.3519 12.5 11.4583C14.6831 11.3519 16.5434 13.0261 16.6667 15.2083V15.6094V15.6104ZM12.5 10.4167C11.9417 10.4361 11.4005 10.2228 11.0055 9.82782C10.6105 9.43283 10.3973 8.89158 10.4167 8.33333C10.3976 7.77516 10.6109 7.23409 11.0059 6.83918C11.4008 6.44427 11.9418 6.23091 12.5 6.24999C13.0582 6.23091 13.5992 6.44427 13.9941 6.83918C14.3891 7.23409 14.6024 7.77516 14.5833 8.33333C14.6027 8.89158 14.3895 9.43283 13.9945 9.82782C13.5995 10.2228 13.0583 10.4361 12.5 10.4167Z" fill="#97939A"/>
</svg>
