<svg width="24" height="24" viewBox="0 0 24 24" fill="none" xmlns="http://www.w3.org/2000/svg">
<path d="M6.96188 6.731C6.75695 6.68069 6.63287 6.47884 6.68476 6.28014C6.73664 6.08143 6.94483 5.96114 7.14976 6.01144L10.9297 6.93926C11.1346 6.98957 11.2587 7.19143 11.2068 7.39013C11.1549 7.58883 10.9467 7.70913 10.7418 7.65882L6.96188 6.731Z" fill="#6575F0"/>
<path d="M17.3471 6.28014C17.399 6.47884 17.275 6.68069 17.07 6.731L13.2901 7.65882C13.0852 7.70913 12.877 7.58883 12.8251 7.39013C12.7732 7.19143 12.8973 6.98957 13.1022 6.93926L16.8821 6.01144C17.0871 5.96114 17.2953 6.08143 17.3471 6.28014Z" fill="#6575F0"/>
<path d="M12.016 7.97945C12.2274 7.97945 12.3987 8.14561 12.3987 8.35058V11.165C12.3987 11.37 12.2274 11.5361 12.016 11.5361C11.8045 11.5361 11.6332 11.37 11.6332 11.165V8.35058C11.6332 8.14561 11.8045 7.97945 12.016 7.97945Z" fill="#6575F0"/>
<path d="M12.9331 12.5949C12.717 12.4796 12.4455 12.5559 12.3265 12.7654C12.2076 12.9749 12.2863 13.2382 12.5023 13.3535C13.4751 13.8729 14.2829 14.1781 15.1279 14.2545C15.9731 14.3309 16.8101 14.1742 17.8327 13.8497C18.0671 13.7753 18.1949 13.5307 18.1182 13.3035C18.0415 13.0762 17.7892 12.9523 17.5548 13.0267C16.5831 13.3351 15.8807 13.4528 15.2108 13.3923C14.5407 13.3317 13.8575 13.0885 12.9331 12.5949Z" fill="#6575F0"/>
<path d="M15.8563 12.1672C15.9461 12.0202 16.1417 11.9716 16.2933 12.0587C16.421 12.132 16.4656 12.1401 16.4838 12.1406L16.484 12.1406C16.4914 12.1409 16.5282 12.142 16.6353 12.0703C16.7803 11.9732 16.9789 12.0085 17.0791 12.149C17.1792 12.2895 17.1428 12.4822 16.9979 12.5792C16.8381 12.6863 16.6656 12.765 16.4637 12.7589C16.2729 12.753 16.1086 12.6714 15.9682 12.5909C15.8167 12.5038 15.7666 12.3141 15.8563 12.1672Z" fill="#6575F0"/>
<path d="M11.7054 12.7654C11.5864 12.5559 11.3149 12.4796 11.0988 12.5949C10.1744 13.0885 9.49123 13.3317 8.82111 13.3923C8.15125 13.4528 7.44881 13.3351 6.47705 13.0267C6.24266 12.9523 5.99044 13.0762 5.91371 13.3035C5.83698 13.5307 5.9648 13.7753 6.19919 13.8497C7.22179 14.1742 8.05876 14.3309 8.90404 14.2545C9.74905 14.1781 10.5568 13.8729 11.5296 13.3535C11.7456 13.2382 11.8243 12.9749 11.7054 12.7654Z" fill="#6575F0"/>
<path d="M7.73857 12.0587C7.89015 11.9716 8.0858 12.0202 8.17558 12.1672C8.26535 12.3141 8.21524 12.5038 8.06366 12.5909C7.92335 12.6714 7.75903 12.753 7.56824 12.7589C7.36628 12.765 7.19384 12.6863 7.03404 12.5792C6.88908 12.4822 6.85273 12.2895 6.95285 12.149C7.05296 12.0085 7.25163 11.9732 7.39659 12.0703C7.50373 12.142 7.54052 12.1409 7.54795 12.1406L7.54815 12.1406C7.56629 12.1401 7.6109 12.132 7.73857 12.0587Z" fill="#6575F0"/>
<path d="M3.02384 9.01325C3.16764 8.82852 3.13621 8.56504 2.94976 8.41733C2.75876 8.26604 2.47743 8.29351 2.32139 8.47869L2.66721 8.75264C2.32139 8.47869 2.32106 8.47908 2.32073 8.47947L2.32005 8.48028L2.31865 8.48197C2.31769 8.48313 2.31668 8.48436 2.31563 8.48565C2.31353 8.48824 2.31126 8.4911 2.30882 8.49422C2.30394 8.50047 2.29841 8.50781 2.29233 8.51625C2.28017 8.53314 2.26584 8.55445 2.25016 8.5804C2.21876 8.63237 2.18221 8.70256 2.14689 8.79267C2.07597 8.97362 2.01197 9.23001 2.0015 9.57415C1.98061 10.2608 2.17282 11.2844 2.92738 12.7542C3.63488 14.1324 3.924 15.3364 4.03717 16.1894C4.09378 16.6161 4.10637 16.9551 4.10519 17.184C4.10461 17.2984 4.10058 17.3852 4.09692 17.4417C4.09508 17.47 4.09334 17.4906 4.09216 17.5033C4.09157 17.5096 4.09113 17.5139 4.09088 17.5163L4.0908 17.5171L4.09074 17.5176L4.09073 17.5176L4.09069 17.518L4.09068 17.5181C4.0629 17.7552 4.2383 17.9695 4.48292 17.9971C4.72791 18.0246 4.94956 17.8544 4.97799 17.6169L4.53911 17.5675C4.97799 17.6169 4.97801 17.6167 4.97803 17.6165L4.9782 17.6151L4.97849 17.6126C4.97871 17.6106 4.97898 17.6082 4.9793 17.6052C4.97962 17.6022 4.97999 17.5986 4.98039 17.5946C4.98079 17.5905 4.98123 17.586 4.9817 17.581C4.98358 17.5607 4.98594 17.5323 4.98829 17.4961C4.99299 17.4238 4.99765 17.3202 4.99833 17.1883C4.99968 16.9245 4.98511 16.547 4.92302 16.0789C4.79879 15.1426 4.48429 13.8437 3.72695 12.3684C3.01667 10.9848 2.87891 10.104 2.89425 9.59968C2.9019 9.34834 2.94756 9.18759 2.98178 9.10027C2.99904 9.05625 3.01392 9.02952 3.02081 9.01811C3.0221 9.01598 3.02312 9.01436 3.02384 9.01325Z" fill="#6575F0"/>
<path d="M21.0562 8.4153C20.8686 8.56166 20.8351 8.82494 20.9775 9.01071C20.9783 9.01183 20.9793 9.01347 20.9806 9.01563C20.9874 9.02711 21.0021 9.05399 21.0192 9.09823C21.0531 9.18602 21.0982 9.34741 21.1058 9.59949C21.1209 10.1052 20.9848 10.9869 20.2852 12.3707C19.5395 13.8457 19.2299 15.144 19.1077 16.0798C19.0466 16.5475 19.0322 16.9247 19.0336 17.1882C19.0342 17.32 19.0388 17.4235 19.0434 17.4957C19.0457 17.5318 19.0481 17.5602 19.0499 17.5804C19.0506 17.5878 19.0512 17.5941 19.0517 17.5993C19.0519 17.6012 19.0521 17.6029 19.0523 17.6045C19.0526 17.6075 19.0529 17.61 19.0531 17.6119L19.0534 17.6144L19.0535 17.6154L19.0535 17.6158C19.0535 17.616 19.0536 17.6161 19.4972 17.567L19.0536 17.6161C19.0816 17.8537 19.3029 18.0243 19.5479 17.9972C19.7926 17.97 19.9684 17.756 19.941 17.5189L19.941 17.5185L19.941 17.5184L19.941 17.5183L19.941 17.5181L19.9409 17.5178L19.9408 17.5169C19.9406 17.5146 19.9401 17.5102 19.9396 17.5038C19.9384 17.4911 19.9367 17.4704 19.9349 17.4421C19.9312 17.3855 19.9273 17.2986 19.9267 17.184C19.9255 16.9548 19.938 16.6156 19.9937 16.1886C20.1053 15.3349 20.3902 14.1304 21.0872 12.7519C21.8302 11.2822 22.0191 10.2596 21.9985 9.57434C21.9882 9.23094 21.9254 8.97519 21.8557 8.79471C21.821 8.70482 21.7851 8.63478 21.7542 8.58288C21.7388 8.55697 21.7247 8.53568 21.7127 8.51879C21.7067 8.51035 21.7013 8.50302 21.6965 8.49676C21.6948 8.49462 21.6932 8.49261 21.6918 8.49073C21.6911 8.48985 21.6904 8.489 21.6897 8.48818C21.6887 8.48689 21.6877 8.48566 21.6868 8.48449L21.6854 8.4828L21.6847 8.48199C21.6844 8.48159 21.6841 8.4812 21.338 8.75121L21.6841 8.4812C21.5294 8.29489 21.2483 8.26539 21.0562 8.4153Z" fill="#6575F0"/>
<path d="M6.96188 6.731C6.75695 6.68069 6.63287 6.47884 6.68476 6.28014C6.73664 6.08143 6.94483 5.96114 7.14976 6.01144L10.9297 6.93926C11.1346 6.98957 11.2587 7.19143 11.2068 7.39013C11.1549 7.58883 10.9467 7.70913 10.7418 7.65882L6.96188 6.731Z" stroke="#6575F0" stroke-width="0.3" stroke-linecap="round" stroke-linejoin="round"/>
<path d="M17.3471 6.28014C17.399 6.47884 17.275 6.68069 17.07 6.731L13.2901 7.65882C13.0852 7.70913 12.877 7.58883 12.8251 7.39013C12.7732 7.19143 12.8973 6.98957 13.1022 6.93926L16.8821 6.01144C17.0871 5.96114 17.2953 6.08143 17.3471 6.28014Z" stroke="#6575F0" stroke-width="0.3" stroke-linecap="round" stroke-linejoin="round"/>
<path d="M12.016 7.97945C12.2274 7.97945 12.3987 8.14561 12.3987 8.35058V11.165C12.3987 11.37 12.2274 11.5361 12.016 11.5361C11.8045 11.5361 11.6332 11.37 11.6332 11.165V8.35058C11.6332 8.14561 11.8045 7.97945 12.016 7.97945Z" stroke="#6575F0" stroke-width="0.3" stroke-linecap="round" stroke-linejoin="round"/>
<path d="M12.9331 12.5949C12.717 12.4796 12.4455 12.5559 12.3265 12.7654C12.2076 12.9749 12.2863 13.2382 12.5023 13.3535C13.4751 13.8729 14.2829 14.1781 15.1279 14.2545C15.9731 14.3309 16.8101 14.1742 17.8327 13.8497C18.0671 13.7753 18.1949 13.5307 18.1182 13.3035C18.0415 13.0762 17.7892 12.9523 17.5548 13.0267C16.5831 13.3351 15.8807 13.4528 15.2108 13.3923C14.5407 13.3317 13.8575 13.0885 12.9331 12.5949Z" stroke="#6575F0" stroke-width="0.3" stroke-linecap="round" stroke-linejoin="round"/>
<path d="M15.8563 12.1672C15.9461 12.0202 16.1417 11.9716 16.2933 12.0587C16.421 12.132 16.4656 12.1401 16.4838 12.1406L16.484 12.1406C16.4914 12.1409 16.5282 12.142 16.6353 12.0703C16.7803 11.9732 16.9789 12.0085 17.0791 12.149C17.1792 12.2895 17.1428 12.4822 16.9979 12.5792C16.8381 12.6863 16.6656 12.765 16.4637 12.7589C16.2729 12.753 16.1086 12.6714 15.9682 12.5909C15.8167 12.5038 15.7666 12.3141 15.8563 12.1672Z" stroke="#6575F0" stroke-width="0.3" stroke-linecap="round" stroke-linejoin="round"/>
<path d="M11.7054 12.7654C11.5864 12.5559 11.3149 12.4796 11.0988 12.5949C10.1744 13.0885 9.49123 13.3317 8.82111 13.3923C8.15125 13.4528 7.44881 13.3351 6.47705 13.0267C6.24266 12.9523 5.99044 13.0762 5.91371 13.3035C5.83698 13.5307 5.9648 13.7753 6.19919 13.8497C7.22179 14.1742 8.05876 14.3309 8.90404 14.2545C9.74905 14.1781 10.5568 13.8729 11.5296 13.3535C11.7456 13.2382 11.8243 12.9749 11.7054 12.7654Z" stroke="#6575F0" stroke-width="0.3" stroke-linecap="round" stroke-linejoin="round"/>
<path d="M7.73857 12.0587C7.89015 11.9716 8.0858 12.0202 8.17558 12.1672C8.26535 12.3141 8.21524 12.5038 8.06366 12.5909C7.92335 12.6714 7.75903 12.753 7.56824 12.7589C7.36628 12.765 7.19384 12.6863 7.03404 12.5792C6.88908 12.4822 6.85273 12.2895 6.95285 12.149C7.05296 12.0085 7.25163 11.9732 7.39659 12.0703C7.50373 12.142 7.54052 12.1409 7.54795 12.1406L7.54815 12.1406C7.56629 12.1401 7.6109 12.132 7.73857 12.0587Z" stroke="#6575F0" stroke-width="0.3" stroke-linecap="round" stroke-linejoin="round"/>
<path d="M3.02384 9.01325C3.16764 8.82852 3.13621 8.56504 2.94976 8.41733C2.75876 8.26604 2.47743 8.29351 2.32139 8.47869L2.66721 8.75264C2.32139 8.47869 2.32106 8.47908 2.32073 8.47947L2.32005 8.48028L2.31865 8.48197C2.31769 8.48313 2.31668 8.48436 2.31563 8.48565C2.31353 8.48824 2.31126 8.4911 2.30882 8.49422C2.30394 8.50047 2.29841 8.50781 2.29233 8.51625C2.28017 8.53314 2.26584 8.55445 2.25016 8.5804C2.21876 8.63237 2.18221 8.70256 2.14689 8.79267C2.07597 8.97362 2.01197 9.23001 2.0015 9.57415C1.98061 10.2608 2.17282 11.2844 2.92738 12.7542C3.63488 14.1324 3.924 15.3364 4.03717 16.1894C4.09378 16.6161 4.10637 16.9551 4.10519 17.184C4.10461 17.2984 4.10058 17.3852 4.09692 17.4417C4.09508 17.47 4.09334 17.4906 4.09216 17.5033C4.09157 17.5096 4.09113 17.5139 4.09088 17.5163L4.0908 17.5171L4.09074 17.5176L4.09073 17.5176L4.09069 17.518L4.09068 17.5181C4.0629 17.7552 4.2383 17.9695 4.48292 17.9971C4.72791 18.0246 4.94956 17.8544 4.97799 17.6169L4.53911 17.5675C4.97799 17.6169 4.97801 17.6167 4.97803 17.6165L4.9782 17.6151L4.97849 17.6126C4.97871 17.6106 4.97898 17.6082 4.9793 17.6052C4.97962 17.6022 4.97999 17.5986 4.98039 17.5946C4.98079 17.5905 4.98123 17.586 4.9817 17.581C4.98358 17.5607 4.98594 17.5323 4.98829 17.4961C4.99299 17.4238 4.99765 17.3202 4.99833 17.1883C4.99968 16.9245 4.98511 16.547 4.92302 16.0789C4.79879 15.1426 4.48429 13.8437 3.72695 12.3684C3.01667 10.9848 2.87891 10.104 2.89425 9.59968C2.9019 9.34834 2.94756 9.18759 2.98178 9.10027C2.99904 9.05625 3.01392 9.02952 3.02081 9.01811C3.0221 9.01598 3.02312 9.01436 3.02384 9.01325Z" stroke="#6575F0" stroke-width="0.3" stroke-linecap="round" stroke-linejoin="round"/>
<path d="M21.0562 8.4153C20.8686 8.56166 20.8351 8.82494 20.9775 9.01071C20.9783 9.01183 20.9793 9.01347 20.9806 9.01563C20.9874 9.02711 21.0021 9.05399 21.0192 9.09823C21.0531 9.18602 21.0982 9.34741 21.1058 9.59949C21.1209 10.1052 20.9848 10.9869 20.2852 12.3707C19.5395 13.8457 19.2299 15.144 19.1077 16.0798C19.0466 16.5475 19.0322 16.9247 19.0336 17.1882C19.0342 17.32 19.0388 17.4235 19.0434 17.4957C19.0457 17.5318 19.0481 17.5602 19.0499 17.5804C19.0506 17.5878 19.0512 17.5941 19.0517 17.5993C19.0519 17.6012 19.0521 17.6029 19.0523 17.6045C19.0526 17.6075 19.0529 17.61 19.0531 17.6119L19.0534 17.6144L19.0535 17.6154L19.0535 17.6158C19.0535 17.616 19.0536 17.6161 19.4972 17.567L19.0536 17.6161C19.0816 17.8537 19.3029 18.0243 19.5479 17.9972C19.7926 17.97 19.9684 17.756 19.941 17.5189L19.941 17.5185L19.941 17.5184L19.941 17.5183L19.941 17.5181L19.9409 17.5178L19.9408 17.5169C19.9406 17.5146 19.9401 17.5102 19.9396 17.5038C19.9384 17.4911 19.9367 17.4704 19.9349 17.4421C19.9312 17.3855 19.9273 17.2986 19.9267 17.184C19.9255 16.9548 19.938 16.6156 19.9937 16.1886C20.1053 15.3349 20.3902 14.1304 21.0872 12.7519C21.8302 11.2822 22.0191 10.2596 21.9985 9.57434C21.9882 9.23094 21.9254 8.97519 21.8557 8.79471C21.821 8.70482 21.7851 8.63478 21.7542 8.58288C21.7388 8.55697 21.7247 8.53568 21.7127 8.51879C21.7067 8.51035 21.7013 8.50302 21.6965 8.49676C21.6948 8.49462 21.6932 8.49261 21.6918 8.49073C21.6911 8.48985 21.6904 8.489 21.6897 8.48818C21.6887 8.48689 21.6877 8.48566 21.6868 8.48449L21.6854 8.4828L21.6847 8.48199C21.6844 8.48159 21.6841 8.4812 21.338 8.75121L21.6841 8.4812C21.5294 8.29489 21.2483 8.26539 21.0562 8.4153Z" stroke="#6575F0" stroke-width="0.3" stroke-linecap="round" stroke-linejoin="round"/>
</svg>
