<svg width="25" height="25" viewBox="0 0 25 25" fill="none" xmlns="http://www.w3.org/2000/svg">
<path d="M19.7917 22.9167H5.20833C4.05774 22.9167 3.125 21.9839 3.125 20.8333V6.24999C3.125 5.0994 4.05774 4.16666 5.20833 4.16666H7.29167V2.08333H9.375V4.16666H15.625V2.08333H17.7083V4.16666H19.7917C20.9423 4.16666 21.875 5.0994 21.875 6.24999V20.8333C21.875 21.9839 20.9423 22.9167 19.7917 22.9167ZM5.20833 10.4167V20.8333H19.7917V10.4167H5.20833ZM5.20833 6.24999V8.33333H19.7917V6.24999H5.20833ZM17.7083 18.75H15.625V16.6667H17.7083V18.75ZM13.5417 18.75H11.4583V16.6667H13.5417V18.75ZM9.375 18.75H7.29167V16.6667H9.375V18.75ZM17.7083 14.5833H15.625V12.5H17.7083V14.5833ZM13.5417 14.5833H11.4583V12.5H13.5417V14.5833ZM9.375 14.5833H7.29167V12.5H9.375V14.5833Z" fill="#97939A"/>
</svg>
