<svg width="24" height="24" viewBox="0 0 24 24" fill="none" xmlns="http://www.w3.org/2000/svg">
<path d="M4.00398 21.2193C3.72346 21.2188 3.45605 21.1005 3.26698 20.8933C3.07442 20.6877 2.97874 20.4098 3.00398 20.1293L3.24898 17.4353L14.567 6.12129L18.104 9.65729L6.78898 20.9703L4.09498 21.2153C4.06398 21.2183 4.03298 21.2193 4.00398 21.2193ZM18.81 8.95029L15.274 5.41429L17.395 3.29329C17.5825 3.10551 17.8371 3 18.1025 3C18.3679 3 18.6224 3.10551 18.81 3.29329L20.931 5.41429C21.1188 5.60185 21.2243 5.85638 21.2243 6.12179C21.2243 6.3872 21.1188 6.64172 20.931 6.82929L18.811 8.94929L18.81 8.95029Z" fill="#2E2C2F"/>
</svg>
