<svg width="50" height="50" viewBox="0 0 50 50" fill="none" xmlns="http://www.w3.org/2000/svg">
<path d="M25 45.8333C19.4731 45.8383 14.1712 43.645 10.2631 39.7369C6.355 35.8288 4.16166 30.5269 4.16663 25V24.5833C4.33703 16.2338 9.47455 8.79198 17.2216 5.67304C24.9686 2.55409 33.8293 4.36019 39.7375 10.2625C45.7009 16.221 47.4857 25.1861 44.259 32.9742C41.0323 40.7623 33.4301 45.8383 25 45.8333ZM25 27.9375L30.3958 33.3333L33.3333 30.3958L27.9375 25L33.3333 19.6042L30.3958 16.6667L25 22.0625L19.6041 16.6667L16.6666 19.6042L22.0625 25L16.6666 30.3958L19.6041 33.3333L25 27.9396V27.9375Z" fill="#6575F0"/>
</svg>
