<svg width="25" height="25" viewBox="0 0 25 25" fill="none" xmlns="http://www.w3.org/2000/svg">
<path d="M22.0701 7.95956L20.1612 6.04648L20.9897 5.21658C21.0732 5.13574 21.1399 5.03904 21.1857 4.93212C21.2316 4.8252 21.2557 4.71021 21.2567 4.59385C21.2577 4.47749 21.2356 4.36209 21.1916 4.25439C21.1476 4.14669 21.0826 4.04884 21.0005 3.96656C20.9184 3.88428 20.8207 3.8192 20.7132 3.77514C20.6057 3.73108 20.4905 3.7089 20.3743 3.70991C20.2582 3.71093 20.1434 3.7351 20.0366 3.78103C19.9299 3.82696 19.8334 3.89372 19.7527 3.97742L18.9242 4.80732L17.0145 2.89513C16.4126 2.32053 15.613 2 14.7816 2C13.9501 2 13.1505 2.32053 12.5486 2.89513C12.2551 3.18885 12.0224 3.53763 11.8635 3.92152C11.7047 4.30541 11.6229 4.71689 11.6229 5.13245C11.6229 5.54801 11.7047 5.95949 11.8635 6.34338C12.0224 6.72728 12.2551 7.07605 12.5486 7.36977L14.4574 9.28197L9.30128 14.4472L7.39157 12.535C6.78964 11.9604 5.99007 11.6398 5.1586 11.6398C4.32714 11.6398 3.52757 11.9604 2.92564 12.535C2.63219 12.8287 2.3994 13.1775 2.24058 13.5614C2.08175 13.9453 2 14.3567 2 14.7723C2 15.1879 2.08175 15.5993 2.24058 15.9832C2.3994 16.3671 2.63219 16.7159 2.92564 17.0096L4.83449 18.9218L4.00604 19.7517C3.92248 19.8326 3.85584 19.9293 3.80999 20.0362C3.76414 20.1431 3.74001 20.2581 3.739 20.3745C3.73799 20.4908 3.76013 20.6062 3.80411 20.7139C3.8481 20.8216 3.91306 20.9195 3.99519 21.0017C4.07733 21.084 4.17501 21.1491 4.28252 21.1932C4.39003 21.2372 4.50523 21.2594 4.62138 21.2584C4.73754 21.2574 4.85233 21.2332 4.95906 21.1873C5.06579 21.1413 5.16232 21.0746 5.24302 20.9909L6.07147 20.161L7.98119 22.0732C8.27438 22.367 8.62249 22.6001 9.00563 22.7591C9.38876 22.9181 9.79943 23 10.2142 23C10.6289 23 11.0395 22.9181 11.4227 22.7591C11.8058 22.6001 12.1539 22.367 12.4471 22.0732C12.7405 21.7795 12.9733 21.4308 13.1321 21.047C13.2909 20.6632 13.3727 20.2518 13.3727 19.8363C13.3727 19.4208 13.2909 19.0094 13.1321 18.6256C12.9733 18.2418 12.7405 17.8931 12.4471 17.5994L10.5383 15.6872L15.6997 10.5211L17.6085 12.4333C17.9017 12.7272 18.2498 12.9602 18.6329 13.1193C19.0161 13.2783 19.4267 13.3602 19.8415 13.3602C20.2562 13.3602 20.6669 13.2783 21.05 13.1193C21.4331 12.9602 21.7812 12.7272 22.0744 12.4333C22.3679 12.1397 22.6006 11.791 22.7594 11.4072C22.9183 11.0233 23 10.6119 23 10.1964C23 9.78095 22.9183 9.36954 22.7594 8.98572C22.6006 8.6019 22.3679 8.2532 22.0744 7.95956H22.0701ZM11.623 19.8367C11.6234 20.022 11.5871 20.2056 11.5162 20.3768C11.4454 20.548 11.3413 20.7034 11.2101 20.834C10.942 21.091 10.5852 21.2344 10.2142 21.2344C9.84308 21.2344 9.48632 21.091 9.21818 20.834L4.16263 15.7696C3.89848 15.505 3.75008 15.1461 3.75008 14.7719C3.75008 14.3976 3.89848 14.0387 4.16263 13.7741C4.42678 13.5095 4.78504 13.3609 5.1586 13.3609C5.53217 13.3609 5.89043 13.5095 6.15458 13.7741L11.2101 18.8386C11.3414 18.9693 11.4455 19.1249 11.5164 19.2962C11.5873 19.4675 11.6235 19.6513 11.623 19.8367ZM20.8331 11.1942C20.5649 11.4511 20.2082 11.5945 19.8371 11.5945C19.466 11.5945 19.1093 11.4511 18.8411 11.1942L13.7856 6.12974C13.6548 5.99871 13.551 5.84317 13.4802 5.67198C13.4095 5.50079 13.373 5.31731 13.373 5.13201C13.373 4.94672 13.4095 4.76324 13.4802 4.59205C13.551 4.42086 13.6548 4.26531 13.7856 4.13429C13.9164 4.00326 14.0716 3.89933 14.2425 3.82842C14.4134 3.75751 14.5966 3.72102 14.7816 3.72102C14.9665 3.72102 15.1497 3.75751 15.3206 3.82842C15.4915 3.89933 15.6467 4.00326 15.7775 4.13429L20.8331 9.19871C20.964 9.32967 21.0678 9.4852 21.1387 9.6564C21.2095 9.8276 21.246 10.0111 21.246 10.1964C21.246 10.3818 21.2095 10.5653 21.1387 10.7365C21.0678 10.9077 20.964 11.0632 20.8331 11.1942Z" fill="#97939A"/>
</svg>
