<svg width="18" height="18" viewBox="0 0 18 18" fill="none" xmlns="http://www.w3.org/2000/svg">
<path d="M14.9775 16.0387L12.4605 13.5217C11.3746 14.0161 10.1931 14.2653 9 14.2515C7.76991 14.2668 6.55253 14.0013 5.4405 13.4752C4.57851 13.0546 3.80448 12.4738 3.15975 11.7637C2.47537 11.0301 1.93747 10.1725 1.575 9.23697L1.5 9.00146L1.57875 8.76446C2.12086 7.38168 3.03319 6.17484 4.21575 5.27621L2.25 3.31046L3.30975 2.25146L16.0365 14.9782L14.979 16.0387H14.9775ZM5.277 6.33821C4.31844 7.01015 3.56149 7.931 3.08775 9.00146C4.10356 11.3451 6.4469 12.8315 9 12.7515C9.78737 12.7579 10.5702 12.6311 11.3153 12.3765L9.96525 11.0265C9.66475 11.1738 9.33466 11.2507 9 11.2515C7.76059 11.2437 6.75778 10.2409 6.75 9.00146C6.75036 8.66604 6.82732 8.33513 6.975 8.03397L5.277 6.33821ZM14.889 11.709L13.845 10.6657C14.2842 10.1692 14.6442 9.6078 14.9122 9.00146C13.8978 6.65665 11.5536 5.16977 9 5.25146C8.81475 5.25146 8.62875 5.25821 8.44875 5.27096L7.125 3.94571C7.74122 3.81389 8.36984 3.74877 9 3.75146C10.2301 3.7362 11.4475 4.00168 12.5595 4.52771C13.4215 4.94827 14.1955 5.52911 14.8403 6.23922C15.5243 6.97194 16.0622 7.82852 16.425 8.76297L16.5 9.00146L16.4213 9.23846C16.0701 10.152 15.5506 10.9916 14.8898 11.7135L14.889 11.709Z" fill="#B2BAF8"/>
</svg>
