<svg width="24" height="24" viewBox="0 0 24 24" fill="none" xmlns="http://www.w3.org/2000/svg">
<path d="M5.03957 10.9357C5.21206 10.9349 5.35256 11.0724 5.35339 11.2427C5.37576 15.8372 5.61005 17.9046 6.81185 19.9969C6.89697 20.1451 6.84435 20.3333 6.69432 20.4174C6.54429 20.5015 6.35367 20.4495 6.26856 20.3013C4.97787 18.0543 4.75111 15.8365 4.72876 11.2457C4.72793 11.0753 4.86709 10.9366 5.03957 10.9357Z" fill="#6575F0"/>
<path d="M18.9604 10.9357C18.7879 10.9349 18.6474 11.0724 18.6466 11.2427C18.6242 15.8372 18.3899 17.9046 17.1881 19.9969C17.103 20.1451 17.1557 20.3333 17.3057 20.4174C17.4557 20.5015 17.6463 20.4495 17.7314 20.3013C19.0221 18.0543 19.2489 15.8365 19.2712 11.2457C19.2721 11.0753 19.1329 10.9366 18.9604 10.9357Z" fill="#6575F0"/>
<path fill-rule="evenodd" clip-rule="evenodd" d="M5.56076 2.11144C5.62009 2.04084 5.70817 2 5.80106 2H11.9641C11.9763 2 11.9882 2.00068 12 2.00201C12.0118 2.00068 12.0237 2 12.0359 2H18.1989C18.2918 2 18.3799 2.04084 18.4392 2.11144C19.2052 3.02278 20.0882 4.456 20.783 6.28223C22.2366 10.103 22.8764 15.6732 19.8647 21.8258C19.8126 21.9323 19.7034 22 19.5836 22H14.1804C14.0391 22 13.9153 21.9062 13.8788 21.7714C13.5343 20.5016 13.0137 18.4731 12.5706 16.5117C12.3528 15.5473 12.1518 14.591 12 13.7462C11.8482 14.591 11.6472 15.5473 11.4294 16.5117C10.9863 18.4731 10.4657 20.5016 10.1212 21.7714C10.0846 21.9062 9.96091 22 9.81955 22H4.41644C4.29665 22 4.18741 21.9323 4.13527 21.8258C1.12357 15.6732 1.76339 10.103 3.21698 6.28223C3.91176 4.456 4.79476 3.02278 5.56076 2.11144ZM12 11.1838C13.0412 10.1022 15.7677 7.9551 20.0885 6.21787C19.4638 4.65765 18.7082 3.42743 18.0506 2.61697H12.0359C12.0237 2.61697 12.0118 2.61628 12 2.61496C11.9882 2.61628 11.9763 2.61697 11.9641 2.61697H5.94935C5.29176 3.42743 4.53624 4.65765 3.91154 6.21787C8.23234 7.9551 10.9588 10.1022 12 11.1838ZM3.69195 6.79571C2.38019 10.439 1.86041 15.6348 4.61327 21.383H9.57959C9.92077 20.113 10.4046 18.2147 10.8197 16.3773C11.2451 14.494 11.5909 12.7054 11.6465 11.7145C10.7774 10.7641 8.10002 8.57068 3.69195 6.79571ZM20.308 6.79571C21.6198 10.439 22.1396 15.6348 19.3867 21.383H14.4204C14.0792 20.113 13.5954 18.2147 13.1803 16.3773C12.7549 14.494 12.4091 12.7054 12.3535 11.7145C13.2226 10.7641 15.9 8.57068 20.308 6.79571Z" fill="#6575F0"/>
<path d="M5.03957 10.9357C5.21206 10.9349 5.35256 11.0724 5.35339 11.2427C5.37576 15.8372 5.61005 17.9046 6.81185 19.9969C6.89697 20.1451 6.84435 20.3333 6.69432 20.4174C6.54429 20.5015 6.35367 20.4495 6.26856 20.3013C4.97787 18.0543 4.75111 15.8365 4.72876 11.2457C4.72793 11.0753 4.86709 10.9366 5.03957 10.9357Z" stroke="#6575F0" stroke-width="0.3" stroke-linecap="round" stroke-linejoin="round"/>
<path d="M18.9604 10.9357C18.7879 10.9349 18.6474 11.0724 18.6466 11.2427C18.6242 15.8372 18.3899 17.9046 17.1881 19.9969C17.103 20.1451 17.1557 20.3333 17.3057 20.4174C17.4557 20.5015 17.6463 20.4495 17.7314 20.3013C19.0221 18.0543 19.2489 15.8365 19.2712 11.2457C19.2721 11.0753 19.1329 10.9366 18.9604 10.9357Z" stroke="#6575F0" stroke-width="0.3" stroke-linecap="round" stroke-linejoin="round"/>
<path fill-rule="evenodd" clip-rule="evenodd" d="M5.56076 2.11144C5.62009 2.04084 5.70817 2 5.80106 2H11.9641C11.9763 2 11.9882 2.00068 12 2.00201C12.0118 2.00068 12.0237 2 12.0359 2H18.1989C18.2918 2 18.3799 2.04084 18.4392 2.11144C19.2052 3.02278 20.0882 4.456 20.783 6.28223C22.2366 10.103 22.8764 15.6732 19.8647 21.8258C19.8126 21.9323 19.7034 22 19.5836 22H14.1804C14.0391 22 13.9153 21.9062 13.8788 21.7714C13.5343 20.5016 13.0137 18.4731 12.5706 16.5117C12.3528 15.5473 12.1518 14.591 12 13.7462C11.8482 14.591 11.6472 15.5473 11.4294 16.5117C10.9863 18.4731 10.4657 20.5016 10.1212 21.7714C10.0846 21.9062 9.96091 22 9.81955 22H4.41644C4.29665 22 4.18741 21.9323 4.13527 21.8258C1.12357 15.6732 1.76339 10.103 3.21698 6.28223C3.91176 4.456 4.79476 3.02278 5.56076 2.11144ZM12 11.1838C13.0412 10.1022 15.7677 7.9551 20.0885 6.21787C19.4638 4.65765 18.7082 3.42743 18.0506 2.61697H12.0359C12.0237 2.61697 12.0118 2.61628 12 2.61496C11.9882 2.61628 11.9763 2.61697 11.9641 2.61697H5.94935C5.29176 3.42743 4.53624 4.65765 3.91154 6.21787C8.23234 7.9551 10.9588 10.1022 12 11.1838ZM3.69195 6.79571C2.38019 10.439 1.86041 15.6348 4.61327 21.383H9.57959C9.92077 20.113 10.4046 18.2147 10.8197 16.3773C11.2451 14.494 11.5909 12.7054 11.6465 11.7145C10.7774 10.7641 8.10002 8.57068 3.69195 6.79571ZM20.308 6.79571C21.6198 10.439 22.1396 15.6348 19.3867 21.383H14.4204C14.0792 20.113 13.5954 18.2147 13.1803 16.3773C12.7549 14.494 12.4091 12.7054 12.3535 11.7145C13.2226 10.7641 15.9 8.57068 20.308 6.79571Z" stroke="#6575F0" stroke-width="0.3" stroke-linecap="round" stroke-linejoin="round"/>
</svg>
