<svg width="24" height="24" viewBox="0 0 24 24" fill="none" xmlns="http://www.w3.org/2000/svg">
<path d="M8.04091 2C8.23307 3.82264 8.47007 4.72343 9.18385 6.06215M12.5311 6.80577C14.0076 4.53588 13.828 3.57233 12.706 2.09989M9.8253 20.2797C9.18171 20.0538 9.0471 19.7862 9.06722 19.1476M8.43744 4.53052C7.59861 6.59922 7.14289 9.00333 7.0146 10.0133C6.88631 11.0233 7.97094 17.283 7.87764 17.6604C7.78434 18.0377 6.87465 19.8579 7.0146 20.8568C7.15456 21.8557 8.55407 21.8557 8.55407 21.8557C8.55407 21.8557 9.6387 21.323 10.7933 21.6115C11.9479 21.9001 12.2278 22 14.9569 22C17.6859 22 16.8929 21.0899 16.8929 21.0899C16.3421 20.4144 15.8504 20.6709 14.9569 20.5905C11.9256 20.254 11.1898 18.6149 10.9916 17.6604C10.7933 16.7059 11.773 13.0544 12.1462 11.0233C12.5194 8.99223 12.8459 7.63818 12.496 6.96115C12.1462 6.28413 11.9012 5.90677 11.9012 5.90677" stroke="#6575F0" stroke-linecap="round" stroke-linejoin="round"/>
</svg>
