<svg width="24" height="24" viewBox="0 0 24 24" fill="none" xmlns="http://www.w3.org/2000/svg">
<path fill-rule="evenodd" clip-rule="evenodd" d="M18.2711 3.0182L18.2701 3.0186C18.1612 3.24599 17.9257 3.5773 17.5807 3.94747C17.1746 4.38329 16.5856 4.90645 15.7838 5.42878C14.178 6.47487 11.7231 7.51475 8.1801 7.84758C6.58806 7.99714 5.47806 8.80672 4.68945 9.96393C3.89042 11.1364 3.42298 12.6673 3.16302 14.2193C2.90397 15.7658 2.85651 17.2988 2.8747 18.4491C2.88378 19.0232 2.90917 19.4995 2.93219 19.8313C2.94369 19.9971 2.9546 20.1267 2.96256 20.2142C2.96654 20.258 2.96978 20.2912 2.97199 20.3132C2.97309 20.3241 2.97394 20.3323 2.97449 20.3375L2.9751 20.3432L2.97523 20.3445C3.00208 20.5887 2.83003 20.809 2.59095 20.8364C2.35186 20.8639 2.13628 20.6881 2.10944 20.4438L2.54066 20.3943C2.10944 20.4438 2.10942 20.4436 2.10939 20.4434L2.10908 20.4405L2.10858 20.4358L2.10826 20.4328C2.10757 20.4262 2.10658 20.4167 2.10533 20.4043C2.10283 20.3795 2.09931 20.3434 2.09506 20.2966C2.08655 20.2031 2.07512 20.067 2.06313 19.8942C2.03917 19.5488 2.01295 19.0562 2.00358 18.4635C1.98486 17.2804 2.03305 15.6884 2.30426 14.0691C2.57456 12.4554 3.07198 10.7796 3.97446 9.45528C4.88737 8.11567 6.21553 7.13822 8.10033 6.96116C11.511 6.64075 13.8317 5.64476 15.3155 4.6782C16.0584 4.1942 16.5927 3.71683 16.9498 3.33365C17.1285 3.14188 17.2613 2.97533 17.3531 2.84518C17.399 2.78008 17.4333 2.7259 17.4575 2.68381C17.4696 2.66285 17.4785 2.64601 17.4848 2.63325C17.4879 2.62694 17.4901 2.62205 17.4917 2.61853C17.4932 2.61516 17.4938 2.61354 17.4938 2.61354C17.5907 2.35399 17.8277 2.23827 17.963 2.18554C18.1234 2.12301 18.3138 2.08432 18.5042 2.05849C18.8892 2.00627 19.3658 1.99533 19.817 2.00159C20.2721 2.0079 20.7186 2.03208 21.0501 2.05452C21.2162 2.06576 21.3542 2.07663 21.451 2.0847C21.4994 2.08874 21.5375 2.09208 21.5637 2.09444C21.5768 2.09561 21.5869 2.09654 21.5938 2.09718L21.6047 2.09821C21.6048 2.09821 21.6049 2.09822 21.5646 2.53847L21.6049 2.09822C21.8444 2.12108 22.0205 2.33801 21.9981 2.58276C21.9757 2.8275 21.7634 3.00737 21.5239 2.98453L21.5238 2.98453L21.5219 2.98434L21.5151 2.98371C21.5089 2.98314 21.4996 2.98228 21.4874 2.98118C21.4628 2.97898 21.4265 2.97579 21.38 2.97191C21.2871 2.96415 21.1536 2.95364 20.9925 2.94274C20.6699 2.92089 20.2397 2.8977 19.8051 2.89167C19.3665 2.88558 18.9403 2.89732 18.6188 2.94092C18.4559 2.96301 18.3421 2.99051 18.2735 3.01723L18.2711 3.0182ZM18.2309 3.03763C18.2306 3.03754 18.2328 3.03592 18.2382 3.03303C18.2338 3.03628 18.2312 3.03772 18.2309 3.03763Z" fill="#6575F0"/>
<path d="M13.6144 8.09735C13.3919 8.00361 13.1373 8.11184 13.0455 8.33907C12.9538 8.56631 13.0597 8.82651 13.2821 8.92025C14.9213 9.6111 16.1072 10.1887 17.1167 10.8846C18.1202 11.5764 18.9641 12.3957 19.9014 13.5849C20.0523 13.7764 20.3265 13.8066 20.5139 13.6525C20.7013 13.4983 20.7309 13.2181 20.58 13.0267C19.6007 11.784 18.6946 10.8986 17.604 10.1468C16.5195 9.39907 15.2675 8.79409 13.6144 8.09735Z" fill="#6575F0"/>
<path d="M9.93097 14.5613C10.1715 14.5573 10.3697 14.7534 10.3735 14.9992C10.3972 16.5085 10.3491 17.6293 10.1494 18.6146C10.1247 18.7362 10.0978 18.8555 10.0686 18.9729C10.0703 18.9913 10.0738 19.0198 10.0812 19.0569C10.0983 19.1435 10.1363 19.2771 10.221 19.4378C10.3873 19.7534 10.751 20.2057 11.5635 20.6057C11.9372 20.7897 12.5238 20.9197 13.2633 21.0004C13.9921 21.08 14.8276 21.1077 15.6732 21.1097C16.5178 21.1118 17.363 21.0883 18.1122 21.0671L18.1545 21.0659C18.8798 21.0455 19.5237 21.0273 19.9697 21.0398C20.1821 21.0458 20.3724 20.9316 20.5551 20.5928C20.7419 20.2465 20.8673 19.7493 20.9444 19.2058C21.0203 18.6706 21.0444 18.1288 21.0491 17.7172C21.0514 17.5124 21.0489 17.3418 21.0458 17.2231C21.0443 17.1638 21.0426 17.1176 21.0414 17.0866C21.0408 17.0711 21.0402 17.0594 21.0399 17.0519L21.0396 17.0472C21.0396 17.0457 21.0395 17.0445 21.0395 17.0436L21.0394 17.0419L21.0394 17.0418C21.0262 16.7963 21.2103 16.5864 21.4505 16.573C21.6908 16.5596 21.8962 16.7476 21.9093 16.9931L21.4743 17.0174C21.9093 16.9931 21.9093 16.9932 21.9093 16.9933L21.9094 16.9946L21.9095 16.9978C21.9097 17.0004 21.9099 17.0041 21.9101 17.0089C21.9105 17.0184 21.9112 17.0321 21.9119 17.0497C21.9133 17.0848 21.9151 17.1356 21.9168 17.1997C21.9201 17.3278 21.9227 17.5097 21.9203 17.7275C21.9153 18.1613 21.89 18.7456 21.8066 19.3335C21.7244 19.9129 21.5806 20.5357 21.3182 21.0224C21.0517 21.5165 20.6127 21.9484 19.9458 21.9296C19.524 21.9178 18.8991 21.9354 18.1514 21.9565L18.1363 21.9569C17.3885 21.978 16.5307 22.002 15.6711 21.9999C14.8125 21.9978 13.9429 21.9698 13.1707 21.8856C12.4092 21.8025 11.699 21.6605 11.1853 21.4076C10.4295 21.0355 9.95402 20.5991 9.65809 20.1884C9.48767 20.5856 9.28224 20.9817 9.03714 21.4001C8.91358 21.611 8.64607 21.6797 8.43964 21.5534C8.2332 21.4272 8.16602 21.1539 8.28958 20.9429C8.81025 20.0541 9.11868 19.31 9.29625 18.4341C9.47592 17.5477 9.5258 16.5065 9.50238 15.0134C9.49853 14.7677 9.69041 14.5652 9.93097 14.5613Z" fill="#6575F0"/>
<path fill-rule="evenodd" clip-rule="evenodd" d="M18.2711 3.0182L18.2701 3.0186C18.1612 3.24599 17.9257 3.5773 17.5807 3.94747C17.1746 4.38329 16.5856 4.90645 15.7838 5.42878C14.178 6.47487 11.7231 7.51475 8.1801 7.84758C6.58806 7.99714 5.47806 8.80672 4.68945 9.96393C3.89042 11.1364 3.42298 12.6673 3.16302 14.2193C2.90397 15.7658 2.85651 17.2988 2.8747 18.4491C2.88378 19.0232 2.90917 19.4995 2.93219 19.8313C2.94369 19.9971 2.9546 20.1267 2.96256 20.2142C2.96654 20.258 2.96978 20.2912 2.97199 20.3132C2.97309 20.3241 2.97394 20.3323 2.97449 20.3375L2.9751 20.3432L2.97523 20.3445C3.00208 20.5887 2.83003 20.809 2.59095 20.8364C2.35186 20.8639 2.13628 20.6881 2.10944 20.4438L2.54066 20.3943C2.10944 20.4438 2.10942 20.4436 2.10939 20.4434L2.10908 20.4405L2.10858 20.4358L2.10826 20.4328C2.10757 20.4262 2.10658 20.4167 2.10533 20.4043C2.10283 20.3795 2.09931 20.3434 2.09506 20.2966C2.08655 20.2031 2.07512 20.067 2.06313 19.8942C2.03917 19.5488 2.01295 19.0562 2.00358 18.4635C1.98486 17.2804 2.03305 15.6884 2.30426 14.0691C2.57456 12.4554 3.07198 10.7796 3.97446 9.45528C4.88737 8.11567 6.21553 7.13822 8.10033 6.96116C11.511 6.64075 13.8317 5.64476 15.3155 4.6782C16.0584 4.1942 16.5927 3.71683 16.9498 3.33365C17.1285 3.14188 17.2613 2.97533 17.3531 2.84518C17.399 2.78008 17.4333 2.7259 17.4575 2.68381C17.4696 2.66285 17.4785 2.64601 17.4848 2.63325C17.4879 2.62694 17.4901 2.62205 17.4917 2.61853C17.4932 2.61516 17.4938 2.61354 17.4938 2.61354C17.5907 2.35399 17.8277 2.23827 17.963 2.18554C18.1234 2.12301 18.3138 2.08432 18.5042 2.05849C18.8892 2.00627 19.3658 1.99533 19.817 2.00159C20.2721 2.0079 20.7186 2.03208 21.0501 2.05452C21.2162 2.06576 21.3542 2.07663 21.451 2.0847C21.4994 2.08874 21.5375 2.09208 21.5637 2.09444C21.5768 2.09561 21.5869 2.09654 21.5938 2.09718L21.6047 2.09821C21.6048 2.09821 21.6049 2.09822 21.5646 2.53847L21.6049 2.09822C21.8444 2.12108 22.0205 2.33801 21.9981 2.58276C21.9757 2.8275 21.7634 3.00737 21.5239 2.98453L21.5238 2.98453L21.5219 2.98434L21.5151 2.98371C21.5089 2.98314 21.4996 2.98228 21.4874 2.98118C21.4628 2.97898 21.4265 2.97579 21.38 2.97191C21.2871 2.96415 21.1536 2.95364 20.9925 2.94274C20.6699 2.92089 20.2397 2.8977 19.8051 2.89167C19.3665 2.88558 18.9403 2.89732 18.6188 2.94092C18.4559 2.96301 18.3421 2.99051 18.2735 3.01723L18.2711 3.0182ZM18.2309 3.03763C18.2306 3.03754 18.2328 3.03592 18.2382 3.03303C18.2338 3.03628 18.2312 3.03772 18.2309 3.03763Z" stroke="#6575F0" stroke-width="0.3" stroke-linecap="round" stroke-linejoin="round"/>
<path d="M13.6144 8.09735C13.3919 8.00361 13.1373 8.11184 13.0455 8.33907C12.9538 8.56631 13.0597 8.82651 13.2821 8.92025C14.9213 9.6111 16.1072 10.1887 17.1167 10.8846C18.1202 11.5764 18.9641 12.3957 19.9014 13.5849C20.0523 13.7764 20.3265 13.8066 20.5139 13.6525C20.7013 13.4983 20.7309 13.2181 20.58 13.0267C19.6007 11.784 18.6946 10.8986 17.604 10.1468C16.5195 9.39907 15.2675 8.79409 13.6144 8.09735Z" stroke="#6575F0" stroke-width="0.3" stroke-linecap="round" stroke-linejoin="round"/>
<path d="M9.93097 14.5613C10.1715 14.5573 10.3697 14.7534 10.3735 14.9992C10.3972 16.5085 10.3491 17.6293 10.1494 18.6146C10.1247 18.7362 10.0978 18.8555 10.0686 18.9729C10.0703 18.9913 10.0738 19.0198 10.0812 19.0569C10.0983 19.1435 10.1363 19.2771 10.221 19.4378C10.3873 19.7534 10.751 20.2057 11.5635 20.6057C11.9372 20.7897 12.5238 20.9197 13.2633 21.0004C13.9921 21.08 14.8276 21.1077 15.6732 21.1097C16.5178 21.1118 17.363 21.0883 18.1122 21.0671L18.1545 21.0659C18.8798 21.0455 19.5237 21.0273 19.9697 21.0398C20.1821 21.0458 20.3724 20.9316 20.5551 20.5928C20.7419 20.2465 20.8673 19.7493 20.9444 19.2058C21.0203 18.6706 21.0444 18.1288 21.0491 17.7172C21.0514 17.5124 21.0489 17.3418 21.0458 17.2231C21.0443 17.1638 21.0426 17.1176 21.0414 17.0866C21.0408 17.0711 21.0402 17.0594 21.0399 17.0519L21.0396 17.0472C21.0396 17.0457 21.0395 17.0445 21.0395 17.0436L21.0394 17.0419L21.0394 17.0418C21.0262 16.7963 21.2103 16.5864 21.4505 16.573C21.6908 16.5596 21.8962 16.7476 21.9093 16.9931L21.4743 17.0174C21.9093 16.9931 21.9093 16.9932 21.9093 16.9933L21.9094 16.9946L21.9095 16.9978C21.9097 17.0004 21.9099 17.0041 21.9101 17.0089C21.9105 17.0184 21.9112 17.0321 21.9119 17.0497C21.9133 17.0848 21.9151 17.1356 21.9168 17.1997C21.9201 17.3278 21.9227 17.5097 21.9203 17.7275C21.9153 18.1613 21.89 18.7456 21.8066 19.3335C21.7244 19.9129 21.5806 20.5357 21.3182 21.0224C21.0517 21.5165 20.6127 21.9484 19.9458 21.9296C19.524 21.9178 18.8991 21.9354 18.1514 21.9565L18.1363 21.9569C17.3885 21.978 16.5307 22.002 15.6711 21.9999C14.8125 21.9978 13.9429 21.9698 13.1707 21.8856C12.4092 21.8025 11.699 21.6605 11.1853 21.4076C10.4295 21.0355 9.95402 20.5991 9.65809 20.1884C9.48767 20.5856 9.28224 20.9817 9.03714 21.4001C8.91358 21.611 8.64607 21.6797 8.43964 21.5534C8.2332 21.4272 8.16602 21.1539 8.28958 20.9429C8.81025 20.0541 9.11868 19.31 9.29625 18.4341C9.47592 17.5477 9.5258 16.5065 9.50238 15.0134C9.49853 14.7677 9.69041 14.5652 9.93097 14.5613Z" stroke="#6575F0" stroke-width="0.3" stroke-linecap="round" stroke-linejoin="round"/>
</svg>
