<svg width="24" height="24" viewBox="0 0 24 24" fill="none" xmlns="http://www.w3.org/2000/svg">
<path d="M10.2602 11.2427C10.2594 11.0724 10.1228 10.9349 9.95514 10.9357C9.78745 10.9366 9.65216 11.0753 9.65296 11.2457C9.67469 15.8365 9.89516 18.0543 11.15 20.3013C11.2327 20.4495 11.4181 20.5015 11.5639 20.4174C11.7098 20.3333 11.7609 20.1451 11.6782 19.9969C10.5098 17.9046 10.282 15.8372 10.2602 11.2427Z" fill="#6575F0"/>
<path fill-rule="evenodd" clip-rule="evenodd" d="M10.4619 2.11144C10.5195 2.04084 10.6052 2 10.6955 2H16.6874C16.8228 2 16.9375 2.09002 16.9766 2.21436C16.9917 2.24951 17 2.28829 17 2.32905L16.9999 11.563C16.9999 11.5891 16.9964 11.6145 16.99 11.6385C16.9517 12.6736 16.5924 14.5764 16.1674 16.5117C15.7367 18.4731 15.2305 20.5016 14.8957 21.7714C14.8601 21.9062 14.7398 22 14.6024 22H9.34932C9.23286 22 9.12665 21.9323 9.07595 21.8258C6.14791 15.6732 6.76996 10.103 8.18318 6.28223C8.85866 4.456 9.71714 3.02278 10.4619 2.11144ZM10.8397 2.61697H16.4332L16.4331 10.8901C15.2545 9.74501 12.707 7.80943 8.85845 6.21787C9.4658 4.65765 10.2003 3.42743 10.8397 2.61697ZM8.64495 6.79571C7.36963 10.439 6.86429 15.6348 9.54068 21.383H14.3691C14.7008 20.113 15.1712 18.2147 15.5747 16.3773C15.9883 14.494 16.3245 12.7054 16.3786 11.7145C15.5336 10.7641 12.9306 8.57068 8.64495 6.79571Z" fill="#6575F0"/>
<path d="M10.2602 11.2427C10.2594 11.0724 10.1228 10.9349 9.95514 10.9357C9.78745 10.9366 9.65216 11.0753 9.65296 11.2457C9.67469 15.8365 9.89516 18.0543 11.15 20.3013C11.2327 20.4495 11.4181 20.5015 11.5639 20.4174C11.7098 20.3333 11.7609 20.1451 11.6782 19.9969C10.5098 17.9046 10.282 15.8372 10.2602 11.2427Z" stroke="#6575F0" stroke-width="0.3" stroke-linecap="round" stroke-linejoin="round"/>
<path fill-rule="evenodd" clip-rule="evenodd" d="M10.4619 2.11144C10.5195 2.04084 10.6052 2 10.6955 2H16.6874C16.8228 2 16.9375 2.09002 16.9766 2.21436C16.9917 2.24951 17 2.28829 17 2.32905L16.9999 11.563C16.9999 11.5891 16.9964 11.6145 16.99 11.6385C16.9517 12.6736 16.5924 14.5764 16.1674 16.5117C15.7367 18.4731 15.2305 20.5016 14.8957 21.7714C14.8601 21.9062 14.7398 22 14.6024 22H9.34932C9.23286 22 9.12665 21.9323 9.07595 21.8258C6.14791 15.6732 6.76996 10.103 8.18318 6.28223C8.85866 4.456 9.71714 3.02278 10.4619 2.11144ZM10.8397 2.61697H16.4332L16.4331 10.8901C15.2545 9.74501 12.707 7.80943 8.85845 6.21787C9.4658 4.65765 10.2003 3.42743 10.8397 2.61697ZM8.64495 6.79571C7.36963 10.439 6.86429 15.6348 9.54068 21.383H14.3691C14.7008 20.113 15.1712 18.2147 15.5747 16.3773C15.9883 14.494 16.3245 12.7054 16.3786 11.7145C15.5336 10.7641 12.9306 8.57068 8.64495 6.79571Z" stroke="#6575F0" stroke-width="0.3" stroke-linecap="round" stroke-linejoin="round"/>
</svg>
