<svg width="24" height="24" viewBox="0 0 24 24" fill="none" xmlns="http://www.w3.org/2000/svg">
<path d="M16.2756 14.9083C16.6521 13.8333 16.9994 13.2276 17.436 12.8968C17.8554 12.5791 18.4183 12.4718 19.3593 12.566C19.5449 12.5846 19.7107 12.4523 19.7296 12.2705C19.7486 12.0887 19.6135 11.9263 19.428 11.9077C18.4236 11.8072 17.6465 11.9009 17.0228 12.3734C16.4163 12.8328 16.0175 13.6065 15.6367 14.6935C15.5762 14.8664 15.6701 15.0546 15.8465 15.1139C16.0229 15.1732 16.215 15.0812 16.2756 14.9083Z" fill="#6575F0"/>
<path d="M7.09659 15.3458C6.95078 15.2318 6.73829 15.2553 6.62197 15.3981C6.50565 15.5409 6.52955 15.7491 6.67535 15.8631C7.96975 16.8747 9.06497 17.4631 10.258 17.5536C11.4489 17.6441 12.6728 17.2335 14.2134 16.4023C14.3767 16.3142 14.4362 16.113 14.3463 15.9529C14.2563 15.7929 14.0509 15.7346 13.8875 15.8227C12.3818 16.6351 11.3012 16.9692 10.3102 16.8939C9.32143 16.8188 8.35755 16.3313 7.09659 15.3458Z" fill="#6575F0"/>
<path fill-rule="evenodd" clip-rule="evenodd" d="M10.9092 4.28199C10.2862 4.13489 9.76696 4.01987 9.26415 4.00234C8.74848 3.98437 8.26095 4.06853 7.6874 4.29718C7.64058 4.31585 7.59864 4.34457 7.56466 4.38123C3.77925 8.4658 1.87892 11.0038 1.00564 15.6269C0.984384 15.7395 1.02402 15.8548 1.11043 15.9318C2.85724 17.489 4.47676 18.515 6.56255 19.145C8.63756 19.7718 11.1526 20 14.6776 20C14.6816 20 14.6856 19.9999 14.6896 19.9998C17.5875 19.8988 19.6178 19.442 20.9523 18.4678C22.3113 17.4757 22.8879 15.9954 22.9995 14.0157C23.0001 14.0051 23.0002 13.9945 22.9997 13.9839C22.942 12.5982 22.3988 11.5673 21.5846 10.8962C20.7763 10.2299 19.7282 9.94058 18.693 9.9802C16.8804 10.0496 15.0224 11.1404 14.4842 13.1134C13.516 11.8872 12.1881 11.2412 10.8084 11.1403C9.43692 11.0401 8.02914 11.4792 6.88673 12.3954C6.97498 11.4288 7.36311 10.2982 8.40574 8.06816C8.7275 8.13226 9.01283 8.16701 9.30327 8.16747C9.67284 8.16805 10.0346 8.11312 10.4749 8.00929C10.5027 8.00273 10.5296 7.99273 10.5548 7.97954C11.0779 7.70615 11.3766 7.43668 11.8699 6.87555C11.9236 6.81445 11.9527 6.73623 11.9517 6.65559C11.9434 5.98697 11.7454 5.48506 11.1218 4.43702C11.0755 4.35911 10.9987 4.30312 10.9092 4.28199ZM1.70479 15.5661C2.55392 11.2617 4.33981 8.84987 8.01223 4.88271C8.4734 4.70729 8.84829 4.64997 9.24013 4.66363C9.63237 4.6773 10.0506 4.76182 10.6104 4.89228C11.1102 5.7449 11.2473 6.1247 11.2721 6.54081C10.8751 6.98435 10.6456 7.17741 10.2745 7.37584C9.88466 7.46585 9.59073 7.50622 9.30436 7.50576C9.00734 7.50529 8.70237 7.4609 8.2903 7.36563C8.13409 7.32951 7.97351 7.40609 7.90617 7.54882C6.48445 10.5621 6.12907 11.778 6.19887 13.1863C6.20545 13.3192 6.29261 13.4353 6.42011 13.481C6.54762 13.5267 6.69067 13.4932 6.78324 13.3959C7.8745 12.2489 9.34978 11.6972 10.7582 11.8002C12.1598 11.9027 13.5158 12.6544 14.3835 14.1601C14.4569 14.2874 14.607 14.3525 14.7526 14.32C14.8982 14.2876 15.0047 14.1653 15.0146 14.0194C15.1574 11.9155 16.9211 10.7102 18.7193 10.6414C19.6139 10.6072 20.4896 10.8584 21.1498 11.4025C21.8012 11.9395 22.27 12.7839 22.3242 13.9952C22.2165 15.8587 21.6833 17.109 20.5488 17.9372C19.3874 18.785 17.5357 19.238 14.6716 19.3383C11.1691 19.338 8.73711 19.1094 6.76156 18.5127C4.84982 17.9352 3.34549 17.0068 1.70479 15.5661Z" fill="#6575F0"/>
<path d="M16.2756 14.9083C16.6521 13.8333 16.9994 13.2276 17.436 12.8968C17.8554 12.5791 18.4183 12.4718 19.3593 12.566C19.5449 12.5846 19.7107 12.4523 19.7296 12.2705C19.7486 12.0887 19.6135 11.9263 19.428 11.9077C18.4236 11.8072 17.6465 11.9009 17.0228 12.3734C16.4163 12.8328 16.0175 13.6065 15.6367 14.6935C15.5762 14.8664 15.6701 15.0546 15.8465 15.1139C16.0229 15.1732 16.215 15.0812 16.2756 14.9083Z" stroke="#6575F0" stroke-width="0.3" stroke-linecap="round" stroke-linejoin="round"/>
<path d="M7.09659 15.3458C6.95078 15.2318 6.73829 15.2553 6.62197 15.3981C6.50565 15.5409 6.52955 15.7491 6.67535 15.8631C7.96975 16.8747 9.06497 17.4631 10.258 17.5536C11.4489 17.6441 12.6728 17.2335 14.2134 16.4023C14.3767 16.3142 14.4362 16.113 14.3463 15.9529C14.2563 15.7929 14.0509 15.7346 13.8875 15.8227C12.3818 16.6351 11.3012 16.9692 10.3102 16.8939C9.32143 16.8188 8.35755 16.3313 7.09659 15.3458Z" stroke="#6575F0" stroke-width="0.3" stroke-linecap="round" stroke-linejoin="round"/>
<path fill-rule="evenodd" clip-rule="evenodd" d="M10.9092 4.28199C10.2862 4.13489 9.76696 4.01987 9.26415 4.00234C8.74848 3.98437 8.26095 4.06853 7.6874 4.29718C7.64058 4.31585 7.59864 4.34457 7.56466 4.38123C3.77925 8.4658 1.87892 11.0038 1.00564 15.6269C0.984384 15.7395 1.02402 15.8548 1.11043 15.9318C2.85724 17.489 4.47676 18.515 6.56255 19.145C8.63756 19.7718 11.1526 20 14.6776 20C14.6816 20 14.6856 19.9999 14.6896 19.9998C17.5875 19.8988 19.6178 19.442 20.9523 18.4678C22.3113 17.4757 22.8879 15.9954 22.9995 14.0157C23.0001 14.0051 23.0002 13.9945 22.9997 13.9839C22.942 12.5982 22.3988 11.5673 21.5846 10.8962C20.7763 10.2299 19.7282 9.94058 18.693 9.9802C16.8804 10.0496 15.0224 11.1404 14.4842 13.1134C13.516 11.8872 12.1881 11.2412 10.8084 11.1403C9.43692 11.0401 8.02914 11.4792 6.88673 12.3954C6.97498 11.4288 7.36311 10.2982 8.40574 8.06816C8.7275 8.13226 9.01283 8.16701 9.30327 8.16747C9.67284 8.16805 10.0346 8.11312 10.4749 8.00929C10.5027 8.00273 10.5296 7.99273 10.5548 7.97954C11.0779 7.70615 11.3766 7.43668 11.8699 6.87555C11.9236 6.81445 11.9527 6.73623 11.9517 6.65559C11.9434 5.98697 11.7454 5.48506 11.1218 4.43702C11.0755 4.35911 10.9987 4.30312 10.9092 4.28199ZM1.70479 15.5661C2.55392 11.2617 4.33981 8.84987 8.01223 4.88271C8.4734 4.70729 8.84829 4.64997 9.24013 4.66363C9.63237 4.6773 10.0506 4.76182 10.6104 4.89228C11.1102 5.7449 11.2473 6.1247 11.2721 6.54081C10.8751 6.98435 10.6456 7.17741 10.2745 7.37584C9.88466 7.46585 9.59073 7.50622 9.30436 7.50576C9.00734 7.50529 8.70237 7.4609 8.2903 7.36563C8.13409 7.32951 7.97351 7.40609 7.90617 7.54882C6.48445 10.5621 6.12907 11.778 6.19887 13.1863C6.20545 13.3192 6.29261 13.4353 6.42011 13.481C6.54762 13.5267 6.69067 13.4932 6.78324 13.3959C7.8745 12.2489 9.34978 11.6972 10.7582 11.8002C12.1598 11.9027 13.5158 12.6544 14.3835 14.1601C14.4569 14.2874 14.607 14.3525 14.7526 14.32C14.8982 14.2876 15.0047 14.1653 15.0146 14.0194C15.1574 11.9155 16.9211 10.7102 18.7193 10.6414C19.6139 10.6072 20.4896 10.8584 21.1498 11.4025C21.8012 11.9395 22.27 12.7839 22.3242 13.9952C22.2165 15.8587 21.6833 17.109 20.5488 17.9372C19.3874 18.785 17.5357 19.238 14.6716 19.3383C11.1691 19.338 8.73711 19.1094 6.76156 18.5127C4.84982 17.9352 3.34549 17.0068 1.70479 15.5661Z" stroke="#6575F0" stroke-width="0.3" stroke-linecap="round" stroke-linejoin="round"/>
</svg>
