<svg width="24" height="24" viewBox="0 0 24 24" fill="none" xmlns="http://www.w3.org/2000/svg">
<path d="M7.52632 8.21053C7.52632 5.88512 9.41143 4 11.7368 4C14.0623 4 15.9474 5.88512 15.9474 8.21053C15.9474 10.5359 14.0623 12.4211 11.7368 12.4211C9.41143 12.4211 7.52632 10.5359 7.52632 8.21053ZM11.7368 10.7368C13.1321 10.7368 14.2632 9.60577 14.2632 8.21053C14.2632 6.81528 13.1321 5.68421 11.7368 5.68421C10.3416 5.68421 9.21053 6.81528 9.21053 8.21053C9.21053 9.60577 10.3416 10.7368 11.7368 10.7368Z" fill="#2E2C2F"/>
<path d="M6.97318 15.2363C5.70977 16.4997 5 18.2133 5 20H6.68421C6.68421 18.66 7.21654 17.3748 8.16409 16.4272C9.11164 15.4797 10.3968 14.9474 11.7368 14.9474C13.0769 14.9474 14.362 15.4797 15.3096 16.4272C16.2571 17.3748 16.7895 18.66 16.7895 20H18.4737C18.4737 18.2133 17.7639 16.4997 16.5005 15.2363C15.2371 13.9729 13.5236 13.2632 11.7368 13.2632C9.95012 13.2632 8.23658 13.9729 6.97318 15.2363Z" fill="#2E2C2F"/>
</svg>
