<svg width="24" height="24" viewBox="0 0 24 24" fill="none" xmlns="http://www.w3.org/2000/svg">
<mask id="path-1-inside-1_352_5372" fill="white">
<path fill-rule="evenodd" clip-rule="evenodd" d="M14.1615 15.2168C13.4967 15.6647 12.7604 15.9286 11.9857 15.9286C11.2197 15.9286 10.4914 15.6706 9.83256 15.232C9.79155 15.3358 9.74273 15.4525 9.68661 15.5752C9.50287 15.9771 9.20744 16.5195 8.8044 16.8404C8.56963 17.0274 8.23381 17.1355 7.92144 17.215C7.66691 17.2799 7.3758 17.3373 7.08506 17.3946L7.085 17.3946L7.08431 17.3948L7.08394 17.3948C7.00269 17.4109 6.92146 17.4269 6.84108 17.4431C6.46344 17.519 6.09252 17.6005 5.75979 17.708C5.42332 17.8166 5.15616 17.9426 4.97135 18.0913C4.59284 18.3957 4.30648 18.986 4.11204 19.5747C4.01854 19.8578 3.95304 20.1194 3.91101 20.3102C3.89007 20.4053 3.87513 20.482 3.86557 20.534C3.8608 20.5599 3.85738 20.5797 3.85523 20.5924C3.85416 20.5988 3.8534 20.6034 3.85296 20.6061L3.85255 20.6087L3.85253 20.6089C3.81289 20.8645 3.59138 21.0366 3.35769 20.9933C3.12395 20.9501 2.96653 20.7077 3.00609 20.452L3.42932 20.5304C3.00609 20.452 3.0061 20.4519 3.00612 20.4518L3.00627 20.4508L3.00657 20.4489L3.00754 20.4429C3.00835 20.4379 3.00948 20.4309 3.01095 20.4222C3.01389 20.4048 3.01818 20.38 3.02392 20.3488C3.03538 20.2865 3.05263 20.1981 3.0764 20.0902C3.1238 19.875 3.19781 19.579 3.30462 19.2556C3.51081 18.6313 3.86832 17.8128 4.46278 17.3347C4.76445 17.092 5.14126 16.9285 5.51674 16.8073C5.89596 16.6848 6.30497 16.5961 6.68578 16.5194C6.77472 16.5015 6.86164 16.4844 6.94637 16.4677L6.94712 16.4675C7.23369 16.411 7.49538 16.3593 7.72673 16.3004C8.0403 16.2205 8.21944 16.1447 8.29913 16.0812C8.52502 15.9013 8.74469 15.5359 8.91881 15.1551C9.00141 14.9745 9.06623 14.8074 9.11033 14.6856C9.11315 14.6778 9.11588 14.6702 9.11852 14.6628C7.62522 13.2638 6.63438 10.933 6.63438 8.85389C6.63438 5.62088 9.03024 3 11.9857 3C14.9411 3 17.337 5.62088 17.337 8.85389C17.337 10.923 16.3556 13.2415 14.8743 14.6426C14.8791 14.6562 14.8842 14.6705 14.8897 14.6856C14.9338 14.8074 14.9986 14.9745 15.0812 15.1551C15.2553 15.5359 15.475 15.9013 15.7009 16.0812C15.7806 16.1447 15.9597 16.2205 16.2733 16.3004C16.5046 16.3593 16.7663 16.411 17.0529 16.4675L17.0535 16.4676C17.1383 16.4844 17.2252 16.5015 17.3142 16.5194C17.695 16.5961 18.104 16.6848 18.4833 16.8073C18.8587 16.9285 19.2355 17.092 19.5372 17.3347C20.1317 17.8128 20.4892 18.6313 20.6954 19.2556C20.8022 19.579 20.8762 19.875 20.9236 20.0902C20.9474 20.1981 20.9646 20.2865 20.9761 20.3488C20.9818 20.38 20.9861 20.4048 20.989 20.4222C20.9905 20.4309 20.9917 20.4379 20.9925 20.4429L20.9934 20.4489L20.9937 20.4508L20.9938 20.4515L20.9939 20.4518C20.9939 20.4519 20.9939 20.452 20.5707 20.5304L20.9939 20.452C21.0335 20.7077 20.8761 20.9501 20.6423 20.9933C20.4086 21.0366 20.1871 20.8645 20.1475 20.6089L20.1474 20.6087L20.147 20.6061C20.1466 20.6034 20.1458 20.5988 20.1448 20.5924C20.1426 20.5797 20.1392 20.5599 20.1344 20.534C20.1249 20.482 20.1099 20.4053 20.089 20.3102C20.047 20.1194 19.9815 19.8578 19.888 19.5747C19.6935 18.986 19.4072 18.3957 19.0287 18.0913C18.8438 17.9426 18.5767 17.8166 18.2402 17.708C17.9075 17.6005 17.5366 17.519 17.1589 17.4431C17.0784 17.4269 16.9971 17.4108 16.9158 17.3948L16.915 17.3946L16.9149 17.3946C16.6242 17.3373 16.3331 17.2799 16.0786 17.215C15.7662 17.1355 15.4304 17.0274 15.1956 16.8404C14.7926 16.5195 14.4971 15.9771 14.3134 15.5752C14.2545 15.4465 14.2037 15.3244 14.1615 15.2168ZM16.4785 8.85389C16.4785 10.2379 15.9572 11.8079 15.0915 13.0277C14.2227 14.252 13.11 14.9895 11.9857 14.9895C10.8614 14.9895 9.74872 14.252 8.87988 13.0277C8.01419 11.8079 7.49288 10.2379 7.49288 8.85389C7.49288 6.13954 9.50438 3.93913 11.9857 3.93913C14.467 3.93913 16.4785 6.13954 16.4785 8.85389Z"/>
<path d="M8.33969 18.2085C8.40561 17.9594 8.64365 17.8159 8.87137 17.888L11.0462 18.5767C11.274 18.6488 11.4051 18.9092 11.3392 19.1583C11.2733 19.4074 11.0352 19.5509 10.8075 19.4788L8.63266 18.7901C8.40494 18.718 8.27377 18.4576 8.33969 18.2085Z"/>
<path d="M15.6603 18.2085C15.5944 17.9594 15.3564 17.8159 15.1286 17.888L12.9538 18.5767C12.726 18.6488 12.5949 18.9092 12.6608 19.1583C12.7267 19.4074 12.9648 19.5509 13.1925 19.4788L15.3673 18.7901C15.5951 18.718 15.7262 18.4576 15.6603 18.2085Z"/>
</mask>
<path fill-rule="evenodd" clip-rule="evenodd" d="M14.1615 15.2168C13.4967 15.6647 12.7604 15.9286 11.9857 15.9286C11.2197 15.9286 10.4914 15.6706 9.83256 15.232C9.79155 15.3358 9.74273 15.4525 9.68661 15.5752C9.50287 15.9771 9.20744 16.5195 8.8044 16.8404C8.56963 17.0274 8.23381 17.1355 7.92144 17.215C7.66691 17.2799 7.3758 17.3373 7.08506 17.3946L7.085 17.3946L7.08431 17.3948L7.08394 17.3948C7.00269 17.4109 6.92146 17.4269 6.84108 17.4431C6.46344 17.519 6.09252 17.6005 5.75979 17.708C5.42332 17.8166 5.15616 17.9426 4.97135 18.0913C4.59284 18.3957 4.30648 18.986 4.11204 19.5747C4.01854 19.8578 3.95304 20.1194 3.91101 20.3102C3.89007 20.4053 3.87513 20.482 3.86557 20.534C3.8608 20.5599 3.85738 20.5797 3.85523 20.5924C3.85416 20.5988 3.8534 20.6034 3.85296 20.6061L3.85255 20.6087L3.85253 20.6089C3.81289 20.8645 3.59138 21.0366 3.35769 20.9933C3.12395 20.9501 2.96653 20.7077 3.00609 20.452L3.42932 20.5304C3.00609 20.452 3.0061 20.4519 3.00612 20.4518L3.00627 20.4508L3.00657 20.4489L3.00754 20.4429C3.00835 20.4379 3.00948 20.4309 3.01095 20.4222C3.01389 20.4048 3.01818 20.38 3.02392 20.3488C3.03538 20.2865 3.05263 20.1981 3.0764 20.0902C3.1238 19.875 3.19781 19.579 3.30462 19.2556C3.51081 18.6313 3.86832 17.8128 4.46278 17.3347C4.76445 17.092 5.14126 16.9285 5.51674 16.8073C5.89596 16.6848 6.30497 16.5961 6.68578 16.5194C6.77472 16.5015 6.86164 16.4844 6.94637 16.4677L6.94712 16.4675C7.23369 16.411 7.49538 16.3593 7.72673 16.3004C8.0403 16.2205 8.21944 16.1447 8.29913 16.0812C8.52502 15.9013 8.74469 15.5359 8.91881 15.1551C9.00141 14.9745 9.06623 14.8074 9.11033 14.6856C9.11315 14.6778 9.11588 14.6702 9.11852 14.6628C7.62522 13.2638 6.63438 10.933 6.63438 8.85389C6.63438 5.62088 9.03024 3 11.9857 3C14.9411 3 17.337 5.62088 17.337 8.85389C17.337 10.923 16.3556 13.2415 14.8743 14.6426C14.8791 14.6562 14.8842 14.6705 14.8897 14.6856C14.9338 14.8074 14.9986 14.9745 15.0812 15.1551C15.2553 15.5359 15.475 15.9013 15.7009 16.0812C15.7806 16.1447 15.9597 16.2205 16.2733 16.3004C16.5046 16.3593 16.7663 16.411 17.0529 16.4675L17.0535 16.4676C17.1383 16.4844 17.2252 16.5015 17.3142 16.5194C17.695 16.5961 18.104 16.6848 18.4833 16.8073C18.8587 16.9285 19.2355 17.092 19.5372 17.3347C20.1317 17.8128 20.4892 18.6313 20.6954 19.2556C20.8022 19.579 20.8762 19.875 20.9236 20.0902C20.9474 20.1981 20.9646 20.2865 20.9761 20.3488C20.9818 20.38 20.9861 20.4048 20.989 20.4222C20.9905 20.4309 20.9917 20.4379 20.9925 20.4429L20.9934 20.4489L20.9937 20.4508L20.9938 20.4515L20.9939 20.4518C20.9939 20.4519 20.9939 20.452 20.5707 20.5304L20.9939 20.452C21.0335 20.7077 20.8761 20.9501 20.6423 20.9933C20.4086 21.0366 20.1871 20.8645 20.1475 20.6089L20.1474 20.6087L20.147 20.6061C20.1466 20.6034 20.1458 20.5988 20.1448 20.5924C20.1426 20.5797 20.1392 20.5599 20.1344 20.534C20.1249 20.482 20.1099 20.4053 20.089 20.3102C20.047 20.1194 19.9815 19.8578 19.888 19.5747C19.6935 18.986 19.4072 18.3957 19.0287 18.0913C18.8438 17.9426 18.5767 17.8166 18.2402 17.708C17.9075 17.6005 17.5366 17.519 17.1589 17.4431C17.0784 17.4269 16.9971 17.4108 16.9158 17.3948L16.915 17.3946L16.9149 17.3946C16.6242 17.3373 16.3331 17.2799 16.0786 17.215C15.7662 17.1355 15.4304 17.0274 15.1956 16.8404C14.7926 16.5195 14.4971 15.9771 14.3134 15.5752C14.2545 15.4465 14.2037 15.3244 14.1615 15.2168ZM16.4785 8.85389C16.4785 10.2379 15.9572 11.8079 15.0915 13.0277C14.2227 14.252 13.11 14.9895 11.9857 14.9895C10.8614 14.9895 9.74872 14.252 8.87988 13.0277C8.01419 11.8079 7.49288 10.2379 7.49288 8.85389C7.49288 6.13954 9.50438 3.93913 11.9857 3.93913C14.467 3.93913 16.4785 6.13954 16.4785 8.85389Z" fill="#6575F0"/>
<path d="M8.33969 18.2085C8.40561 17.9594 8.64365 17.8159 8.87137 17.888L11.0462 18.5767C11.274 18.6488 11.4051 18.9092 11.3392 19.1583C11.2733 19.4074 11.0352 19.5509 10.8075 19.4788L8.63266 18.7901C8.40494 18.718 8.27377 18.4576 8.33969 18.2085Z" fill="#6575F0"/>
<path d="M15.6603 18.2085C15.5944 17.9594 15.3564 17.8159 15.1286 17.888L12.9538 18.5767C12.726 18.6488 12.5949 18.9092 12.6608 19.1583C12.7267 19.4074 12.9648 19.5509 13.1925 19.4788L15.3673 18.7901C15.5951 18.718 15.7262 18.4576 15.6603 18.2085Z" fill="#6575F0"/>
<path fill-rule="evenodd" clip-rule="evenodd" d="M14.1615 15.2168C13.4967 15.6647 12.7604 15.9286 11.9857 15.9286C11.2197 15.9286 10.4914 15.6706 9.83256 15.232C9.79155 15.3358 9.74273 15.4525 9.68661 15.5752C9.50287 15.9771 9.20744 16.5195 8.8044 16.8404C8.56963 17.0274 8.23381 17.1355 7.92144 17.215C7.66691 17.2799 7.3758 17.3373 7.08506 17.3946L7.085 17.3946L7.08431 17.3948L7.08394 17.3948C7.00269 17.4109 6.92146 17.4269 6.84108 17.4431C6.46344 17.519 6.09252 17.6005 5.75979 17.708C5.42332 17.8166 5.15616 17.9426 4.97135 18.0913C4.59284 18.3957 4.30648 18.986 4.11204 19.5747C4.01854 19.8578 3.95304 20.1194 3.91101 20.3102C3.89007 20.4053 3.87513 20.482 3.86557 20.534C3.8608 20.5599 3.85738 20.5797 3.85523 20.5924C3.85416 20.5988 3.8534 20.6034 3.85296 20.6061L3.85255 20.6087L3.85253 20.6089C3.81289 20.8645 3.59138 21.0366 3.35769 20.9933C3.12395 20.9501 2.96653 20.7077 3.00609 20.452L3.42932 20.5304C3.00609 20.452 3.0061 20.4519 3.00612 20.4518L3.00627 20.4508L3.00657 20.4489L3.00754 20.4429C3.00835 20.4379 3.00948 20.4309 3.01095 20.4222C3.01389 20.4048 3.01818 20.38 3.02392 20.3488C3.03538 20.2865 3.05263 20.1981 3.0764 20.0902C3.1238 19.875 3.19781 19.579 3.30462 19.2556C3.51081 18.6313 3.86832 17.8128 4.46278 17.3347C4.76445 17.092 5.14126 16.9285 5.51674 16.8073C5.89596 16.6848 6.30497 16.5961 6.68578 16.5194C6.77472 16.5015 6.86164 16.4844 6.94637 16.4677L6.94712 16.4675C7.23369 16.411 7.49538 16.3593 7.72673 16.3004C8.0403 16.2205 8.21944 16.1447 8.29913 16.0812C8.52502 15.9013 8.74469 15.5359 8.91881 15.1551C9.00141 14.9745 9.06623 14.8074 9.11033 14.6856C9.11315 14.6778 9.11588 14.6702 9.11852 14.6628C7.62522 13.2638 6.63438 10.933 6.63438 8.85389C6.63438 5.62088 9.03024 3 11.9857 3C14.9411 3 17.337 5.62088 17.337 8.85389C17.337 10.923 16.3556 13.2415 14.8743 14.6426C14.8791 14.6562 14.8842 14.6705 14.8897 14.6856C14.9338 14.8074 14.9986 14.9745 15.0812 15.1551C15.2553 15.5359 15.475 15.9013 15.7009 16.0812C15.7806 16.1447 15.9597 16.2205 16.2733 16.3004C16.5046 16.3593 16.7663 16.411 17.0529 16.4675L17.0535 16.4676C17.1383 16.4844 17.2252 16.5015 17.3142 16.5194C17.695 16.5961 18.104 16.6848 18.4833 16.8073C18.8587 16.9285 19.2355 17.092 19.5372 17.3347C20.1317 17.8128 20.4892 18.6313 20.6954 19.2556C20.8022 19.579 20.8762 19.875 20.9236 20.0902C20.9474 20.1981 20.9646 20.2865 20.9761 20.3488C20.9818 20.38 20.9861 20.4048 20.989 20.4222C20.9905 20.4309 20.9917 20.4379 20.9925 20.4429L20.9934 20.4489L20.9937 20.4508L20.9938 20.4515L20.9939 20.4518C20.9939 20.4519 20.9939 20.452 20.5707 20.5304L20.9939 20.452C21.0335 20.7077 20.8761 20.9501 20.6423 20.9933C20.4086 21.0366 20.1871 20.8645 20.1475 20.6089L20.1474 20.6087L20.147 20.6061C20.1466 20.6034 20.1458 20.5988 20.1448 20.5924C20.1426 20.5797 20.1392 20.5599 20.1344 20.534C20.1249 20.482 20.1099 20.4053 20.089 20.3102C20.047 20.1194 19.9815 19.8578 19.888 19.5747C19.6935 18.986 19.4072 18.3957 19.0287 18.0913C18.8438 17.9426 18.5767 17.8166 18.2402 17.708C17.9075 17.6005 17.5366 17.519 17.1589 17.4431C17.0784 17.4269 16.9971 17.4108 16.9158 17.3948L16.915 17.3946L16.9149 17.3946C16.6242 17.3373 16.3331 17.2799 16.0786 17.215C15.7662 17.1355 15.4304 17.0274 15.1956 16.8404C14.7926 16.5195 14.4971 15.9771 14.3134 15.5752C14.2545 15.4465 14.2037 15.3244 14.1615 15.2168ZM16.4785 8.85389C16.4785 10.2379 15.9572 11.8079 15.0915 13.0277C14.2227 14.252 13.11 14.9895 11.9857 14.9895C10.8614 14.9895 9.74872 14.252 8.87988 13.0277C8.01419 11.8079 7.49288 10.2379 7.49288 8.85389C7.49288 6.13954 9.50438 3.93913 11.9857 3.93913C14.467 3.93913 16.4785 6.13954 16.4785 8.85389Z" stroke="#6575F0" stroke-width="0.6" mask="url(#path-1-inside-1_352_5372)"/>
<path d="M8.33969 18.2085C8.40561 17.9594 8.64365 17.8159 8.87137 17.888L11.0462 18.5767C11.274 18.6488 11.4051 18.9092 11.3392 19.1583C11.2733 19.4074 11.0352 19.5509 10.8075 19.4788L8.63266 18.7901C8.40494 18.718 8.27377 18.4576 8.33969 18.2085Z" stroke="#6575F0" stroke-width="0.6" mask="url(#path-1-inside-1_352_5372)"/>
<path d="M15.6603 18.2085C15.5944 17.9594 15.3564 17.8159 15.1286 17.888L12.9538 18.5767C12.726 18.6488 12.5949 18.9092 12.6608 19.1583C12.7267 19.4074 12.9648 19.5509 13.1925 19.4788L15.3673 18.7901C15.5951 18.718 15.7262 18.4576 15.6603 18.2085Z" stroke="#6575F0" stroke-width="0.6" mask="url(#path-1-inside-1_352_5372)"/>
</svg>
