<svg width="24" height="24" viewBox="0 0 24 24" fill="none" xmlns="http://www.w3.org/2000/svg">
<path fill-rule="evenodd" clip-rule="evenodd" d="M10 20C10 21.1046 10.8954 22 12 22C13.1046 22 14 21.1046 14 20H10ZM4 19H20V17L18 16V10.5C18 7.036 16.579 4.792 14 4.18V2H10V4.18C7.421 4.793 6 7.038 6 10.5V16L4 17V19ZM8.875 7.2C9.60278 6.21728 10.7797 5.6712 12 5.75C13.2203 5.6712 14.3972 6.21728 15.125 7.2C15.7474 8.18458 16.0528 9.33639 16 10.5V17H8V10.5C7.94714 9.33638 8.25255 8.18456 8.875 7.2ZM10 13H14V11H10V13Z" fill="#2E2C2F"/>
</svg>
