<svg width="24" height="24" viewBox="0 0 24 24" fill="none" xmlns="http://www.w3.org/2000/svg">
<path d="M11.2 8.2C11.2 9.96731 9.76731 11.4 8 11.4C6.23269 11.4 4.8 9.96731 4.8 8.2C4.8 6.43269 6.23269 5 8 5C9.76731 5 11.2 6.43269 11.2 8.2ZM9.6 8.2C9.6 7.31634 8.88366 6.6 8 6.6C7.11634 6.6 6.4 7.31634 6.4 8.2C6.4 9.08366 7.11634 9.8 8 9.8C8.88366 9.8 9.6 9.08366 9.6 8.2Z" fill="#2E2C2F"/>
<path d="M19.2 11.8C19.2 13.3464 17.9464 14.6 16.4 14.6C14.8536 14.6 13.6 13.3464 13.6 11.8C13.6 10.2536 14.8536 9 16.4 9C17.9464 9 19.2 10.2536 19.2 11.8ZM17.6 11.8C17.6 11.1373 17.0627 10.6 16.4 10.6C15.7373 10.6 15.2 11.1373 15.2 11.8C15.2 12.4627 15.7373 13 16.4 13C17.0627 13 17.6 12.4627 17.6 11.8Z" fill="#2E2C2F"/>
<path d="M10.4 19.4V16.2C10.4 14.8745 9.32548 13.8 8 13.8C6.67452 13.8 5.6 14.8745 5.6 16.2V19.4H4V16.2C4 13.9909 5.79086 12.2 8 12.2C10.2091 12.2 12 13.9909 12 16.2V19.4H10.4Z" fill="#2E2C2F"/>
<path d="M18.4 19V19.4H20V19C20 17.0118 18.3882 15.4 16.4 15.4C14.4118 15.4 12.8 17.0118 12.8 19V19.4H14.4V19C14.4 17.8954 15.2954 17 16.4 17C17.5046 17 18.4 17.8954 18.4 19Z" fill="#2E2C2F"/>
</svg>
