<svg width="38" height="38" viewBox="0 0 38 38" fill="none" xmlns="http://www.w3.org/2000/svg">
<path d="M26.9154 29.0832C26.9154 29.6355 26.4677 30.0832 25.9154 30.0832H22.6376C22.0853 30.0832 21.6376 29.6355 21.6376 29.0832V8.9165C21.6376 8.36422 22.0853 7.9165 22.6376 7.9165H25.9154C26.4676 7.9165 26.9154 8.36422 26.9154 8.9165V29.0832ZM16.3598 29.0832C16.3598 29.6355 15.9121 30.0832 15.3598 30.0832H12.082C11.5297 30.0832 11.082 29.6355 11.082 29.0832V8.9165C11.082 8.36422 11.5297 7.9165 12.082 7.9165H15.3598C15.9121 7.9165 16.3598 8.36422 16.3598 8.9165V29.0832Z" fill="#2E2C2F"/>
</svg>
