<svg width="25" height="25" viewBox="0 0 25 25" fill="none" xmlns="http://www.w3.org/2000/svg">
<path d="M7.29102 8.33333C7.29102 5.45685 9.62287 3.125 12.4993 3.125C15.3758 3.125 17.7077 5.45685 17.7077 8.33333C17.7077 11.2098 15.3758 13.5417 12.4993 13.5417C9.62287 13.5417 7.29102 11.2098 7.29102 8.33333ZM12.4993 11.4583C14.2252 11.4583 15.6243 10.0592 15.6243 8.33333C15.6243 6.60744 14.2252 5.20833 12.4993 5.20833C10.7735 5.20833 9.37435 6.60744 9.37435 8.33333C9.37435 10.0592 10.7735 11.4583 12.4993 11.4583Z" fill="#97939A"/>
<path d="M6.60679 17.0241C5.04399 18.5869 4.16602 20.7065 4.16602 22.9167H6.24935C6.24935 21.2591 6.90783 19.6693 8.07993 18.4972C9.25203 17.3251 10.8417 16.6667 12.4993 16.6667C14.157 16.6667 15.7467 17.3251 16.9188 18.4972C18.0909 19.6693 18.7493 21.2591 18.7493 22.9167H20.8327C20.8327 20.7065 19.9547 18.5869 18.3919 17.0241C16.8291 15.4613 14.7095 14.5833 12.4993 14.5833C10.2892 14.5833 8.1696 15.4613 6.60679 17.0241Z" fill="#97939A"/>
</svg>
