<svg width="24" height="24" viewBox="0 0 24 24" fill="none" xmlns="http://www.w3.org/2000/svg">
<path d="M5 5L6.95174 5L6.95174 7.37644C8.11304 6.50741 9.57742 5.98911 11.1689 5.98911C14.9416 5.98911 18 8.90169 18 12.4946C18 16.0874 14.9416 19 11.1689 19C9.07031 19 7.19274 18.0988 5.93966 16.6806L7.51991 15.5795C8.41371 16.5376 9.71728 17.1413 11.1689 17.1413C13.8637 17.1413 16.0483 15.0609 16.0483 12.4946C16.0483 9.92823 13.8637 7.84781 11.1689 7.84781C10.1083 7.84781 9.12671 8.17008 8.32625 8.7174L10.8552 8.7174L10.8552 10.5761L5 10.5761L5 5Z" fill="#2E2C2F"/>
</svg>
