<svg width="24" height="24" viewBox="0 0 24 24" fill="none" xmlns="http://www.w3.org/2000/svg">
<path fill-rule="evenodd" clip-rule="evenodd" d="M5.72891 3.0182L5.72993 3.0186C5.83883 3.24599 6.0743 3.5773 6.41926 3.94747C6.82539 4.38329 7.41436 4.90645 8.21616 5.42878C9.82197 6.47487 12.2769 7.51475 15.8199 7.84758C17.4119 7.99714 18.5219 8.80672 19.3105 9.96393C20.1096 11.1364 20.577 12.6673 20.837 14.2193C21.096 15.7658 21.1435 17.2988 21.1253 18.4491C21.1162 19.0232 21.0908 19.4995 21.0678 19.8313C21.0563 19.9971 21.0454 20.1267 21.0374 20.2142C21.0335 20.258 21.0302 20.2912 21.028 20.3132C21.0269 20.3241 21.0261 20.3323 21.0255 20.3375L21.0249 20.3432L21.0248 20.3445C20.9979 20.5887 21.17 20.809 21.4091 20.8364C21.6481 20.8639 21.8637 20.6881 21.8906 20.4438L21.4593 20.3943C21.8906 20.4438 21.8906 20.4436 21.8906 20.4434L21.8909 20.4405L21.8914 20.4358L21.8917 20.4328C21.8924 20.4262 21.8934 20.4167 21.8947 20.4043C21.8972 20.3795 21.9007 20.3434 21.9049 20.2966C21.9134 20.2031 21.9249 20.067 21.9369 19.8942C21.9608 19.5488 21.987 19.0562 21.9964 18.4635C22.0151 17.2804 21.967 15.6884 21.6957 14.0691C21.4254 12.4554 20.928 10.7796 20.0255 9.45528C19.1126 8.11567 17.7845 7.13822 15.8997 6.96116C12.489 6.64075 10.1683 5.64476 8.68455 4.6782C7.94158 4.1942 7.40731 3.71683 7.05023 3.33365C6.87153 3.14188 6.73872 2.97533 6.64694 2.84518C6.60103 2.78008 6.56667 2.7259 6.54245 2.68381C6.53039 2.66285 6.52148 2.64601 6.51522 2.63325C6.51211 2.62694 6.50987 2.62205 6.50832 2.61853C6.50684 2.61516 6.50623 2.61354 6.50623 2.61354C6.40931 2.35399 6.17229 2.23827 6.037 2.18554C5.87659 2.12301 5.68623 2.08432 5.49583 2.05849C5.11076 2.00627 4.6342 1.99533 4.18304 2.00159C3.7279 2.0079 3.28139 2.03208 2.94985 2.05452C2.78376 2.06576 2.64576 2.07663 2.54902 2.0847C2.50063 2.08874 2.46253 2.09208 2.43634 2.09444C2.42325 2.09561 2.41313 2.09654 2.4062 2.09718L2.39525 2.09821C2.39519 2.09821 2.39514 2.09822 2.43538 2.53847L2.39514 2.09822C2.1556 2.12108 1.97955 2.33801 2.00192 2.58276C2.02429 2.8275 2.23659 3.00737 2.47613 2.98453L2.47617 2.98453L2.4781 2.98434L2.48493 2.98371C2.49108 2.98314 2.50039 2.98228 2.51265 2.98118C2.53716 2.97898 2.57347 2.97579 2.61995 2.97191C2.71294 2.96415 2.84644 2.95364 3.00745 2.94274C3.33014 2.92089 3.76029 2.8977 4.19488 2.89167C4.63345 2.88558 5.05972 2.89732 5.38118 2.94092C5.54405 2.96301 5.65789 2.99051 5.72645 3.01723L5.72891 3.0182ZM5.7691 3.03763C5.76936 3.03754 5.7672 3.03592 5.76185 3.03303C5.76617 3.03628 5.76885 3.03772 5.7691 3.03763Z" fill="#6575F0"/>
<path d="M10.3856 8.09735C10.6081 8.00361 10.8627 8.11184 10.9545 8.33907C11.0462 8.56631 10.9403 8.82651 10.7179 8.92025C9.0787 9.6111 7.89276 10.1887 6.88328 10.8846C5.87982 11.5764 5.03586 12.3957 4.09863 13.5849C3.94774 13.7764 3.67352 13.8066 3.48613 13.6525C3.29874 13.4983 3.26915 13.2181 3.42004 13.0267C4.39933 11.784 5.30542 10.8986 6.39596 10.1468C7.48048 9.39907 8.7325 8.79409 10.3856 8.09735Z" fill="#6575F0"/>
<path d="M14.069 14.5613C13.8285 14.5573 13.6303 14.7534 13.6265 14.9992C13.6028 16.5085 13.6509 17.6293 13.8506 18.6146C13.8753 18.7362 13.9022 18.8555 13.9314 18.9729C13.9297 18.9913 13.9262 19.0198 13.9188 19.0569C13.9017 19.1435 13.8637 19.2771 13.779 19.4378C13.6127 19.7534 13.249 20.2057 12.4365 20.6057C12.0628 20.7897 11.4762 20.9197 10.7367 21.0004C10.0079 21.08 9.17238 21.1077 8.32683 21.1097C7.48224 21.1118 6.63695 21.0883 5.88777 21.0671L5.84547 21.0659C5.12017 21.0455 4.47633 21.0273 4.03028 21.0398C3.81789 21.0458 3.62764 20.9316 3.44491 20.5928C3.25814 20.2465 3.13272 19.7493 3.0556 19.2058C2.97967 18.6706 2.95558 18.1288 2.95092 17.7172C2.9486 17.5124 2.95111 17.3418 2.95416 17.2231C2.9557 17.1638 2.95736 17.1176 2.95862 17.0866C2.95925 17.0711 2.95977 17.0594 2.96013 17.0519L2.96036 17.0472C2.96043 17.0457 2.96049 17.0445 2.96054 17.0436L2.96062 17.0419L2.96063 17.0418C2.97378 16.7963 2.7897 16.5864 2.54947 16.573C2.30925 16.5596 2.10385 16.7476 2.09069 16.9931L2.52566 17.0174C2.09069 16.9931 2.09069 16.9932 2.09068 16.9933L2.09061 16.9946L2.09045 16.9978C2.09032 17.0004 2.09014 17.0041 2.08991 17.0089C2.08946 17.0184 2.08884 17.0321 2.08813 17.0497C2.0867 17.0848 2.08488 17.1356 2.08323 17.1997C2.07993 17.3278 2.07727 17.5097 2.07974 17.7275C2.08465 18.1613 2.10997 18.7456 2.19337 19.3335C2.27557 19.9129 2.41939 20.5357 2.68185 21.0224C2.94835 21.5165 3.38733 21.9484 4.05425 21.9296C4.47601 21.9178 5.10092 21.9354 5.84861 21.9565L5.86372 21.9569C6.61147 21.978 7.46933 22.002 8.3289 21.9999C9.18751 21.9978 10.0571 21.9698 10.8293 21.8856C11.5908 21.8025 12.301 21.6605 12.8147 21.4076C13.5705 21.0355 14.046 20.5991 14.3419 20.1884C14.5123 20.5856 14.7178 20.9817 14.9629 21.4001C15.0864 21.611 15.3539 21.6797 15.5604 21.5534C15.7668 21.4272 15.834 21.1539 15.7104 20.9429C15.1897 20.0541 14.8813 19.31 14.7038 18.4341C14.5241 17.5477 14.4742 16.5065 14.4976 15.0134C14.5015 14.7677 14.3096 14.5652 14.069 14.5613Z" fill="#6575F0"/>
<path fill-rule="evenodd" clip-rule="evenodd" d="M5.72891 3.0182L5.72993 3.0186C5.83883 3.24599 6.0743 3.5773 6.41926 3.94747C6.82539 4.38329 7.41436 4.90645 8.21616 5.42878C9.82197 6.47487 12.2769 7.51475 15.8199 7.84758C17.4119 7.99714 18.5219 8.80672 19.3105 9.96393C20.1096 11.1364 20.577 12.6673 20.837 14.2193C21.096 15.7658 21.1435 17.2988 21.1253 18.4491C21.1162 19.0232 21.0908 19.4995 21.0678 19.8313C21.0563 19.9971 21.0454 20.1267 21.0374 20.2142C21.0335 20.258 21.0302 20.2912 21.028 20.3132C21.0269 20.3241 21.0261 20.3323 21.0255 20.3375L21.0249 20.3432L21.0248 20.3445C20.9979 20.5887 21.17 20.809 21.4091 20.8364C21.6481 20.8639 21.8637 20.6881 21.8906 20.4438L21.4593 20.3943C21.8906 20.4438 21.8906 20.4436 21.8906 20.4434L21.8909 20.4405L21.8914 20.4358L21.8917 20.4328C21.8924 20.4262 21.8934 20.4167 21.8947 20.4043C21.8972 20.3795 21.9007 20.3434 21.9049 20.2966C21.9134 20.2031 21.9249 20.067 21.9369 19.8942C21.9608 19.5488 21.987 19.0562 21.9964 18.4635C22.0151 17.2804 21.967 15.6884 21.6957 14.0691C21.4254 12.4554 20.928 10.7796 20.0255 9.45528C19.1126 8.11567 17.7845 7.13822 15.8997 6.96116C12.489 6.64075 10.1683 5.64476 8.68455 4.6782C7.94158 4.1942 7.40731 3.71683 7.05023 3.33365C6.87153 3.14188 6.73872 2.97533 6.64694 2.84518C6.60103 2.78008 6.56667 2.7259 6.54245 2.68381C6.53039 2.66285 6.52148 2.64601 6.51522 2.63325C6.51211 2.62694 6.50987 2.62205 6.50832 2.61853C6.50684 2.61516 6.50623 2.61354 6.50623 2.61354C6.40931 2.35399 6.17229 2.23827 6.037 2.18554C5.87659 2.12301 5.68623 2.08432 5.49583 2.05849C5.11076 2.00627 4.6342 1.99533 4.18304 2.00159C3.7279 2.0079 3.28139 2.03208 2.94985 2.05452C2.78376 2.06576 2.64576 2.07663 2.54902 2.0847C2.50063 2.08874 2.46253 2.09208 2.43634 2.09444C2.42325 2.09561 2.41313 2.09654 2.4062 2.09718L2.39525 2.09821C2.39519 2.09821 2.39514 2.09822 2.43538 2.53847L2.39514 2.09822C2.1556 2.12108 1.97955 2.33801 2.00192 2.58276C2.02429 2.8275 2.23659 3.00737 2.47613 2.98453L2.47617 2.98453L2.4781 2.98434L2.48493 2.98371C2.49108 2.98314 2.50039 2.98228 2.51265 2.98118C2.53716 2.97898 2.57347 2.97579 2.61995 2.97191C2.71294 2.96415 2.84644 2.95364 3.00745 2.94274C3.33014 2.92089 3.76029 2.8977 4.19488 2.89167C4.63345 2.88558 5.05972 2.89732 5.38118 2.94092C5.54405 2.96301 5.65789 2.99051 5.72645 3.01723L5.72891 3.0182ZM5.7691 3.03763C5.76936 3.03754 5.7672 3.03592 5.76185 3.03303C5.76617 3.03628 5.76885 3.03772 5.7691 3.03763Z" stroke="#6575F0" stroke-width="0.3" stroke-linecap="round" stroke-linejoin="round"/>
<path d="M10.3856 8.09735C10.6081 8.00361 10.8627 8.11184 10.9545 8.33907C11.0462 8.56631 10.9403 8.82651 10.7179 8.92025C9.0787 9.6111 7.89276 10.1887 6.88328 10.8846C5.87982 11.5764 5.03586 12.3957 4.09863 13.5849C3.94774 13.7764 3.67352 13.8066 3.48613 13.6525C3.29874 13.4983 3.26915 13.2181 3.42004 13.0267C4.39933 11.784 5.30542 10.8986 6.39596 10.1468C7.48048 9.39907 8.7325 8.79409 10.3856 8.09735Z" stroke="#6575F0" stroke-width="0.3" stroke-linecap="round" stroke-linejoin="round"/>
<path d="M14.069 14.5613C13.8285 14.5573 13.6303 14.7534 13.6265 14.9992C13.6028 16.5085 13.6509 17.6293 13.8506 18.6146C13.8753 18.7362 13.9022 18.8555 13.9314 18.9729C13.9297 18.9913 13.9262 19.0198 13.9188 19.0569C13.9017 19.1435 13.8637 19.2771 13.779 19.4378C13.6127 19.7534 13.249 20.2057 12.4365 20.6057C12.0628 20.7897 11.4762 20.9197 10.7367 21.0004C10.0079 21.08 9.17238 21.1077 8.32683 21.1097C7.48224 21.1118 6.63695 21.0883 5.88777 21.0671L5.84547 21.0659C5.12017 21.0455 4.47633 21.0273 4.03028 21.0398C3.81789 21.0458 3.62764 20.9316 3.44491 20.5928C3.25814 20.2465 3.13272 19.7493 3.0556 19.2058C2.97967 18.6706 2.95558 18.1288 2.95092 17.7172C2.9486 17.5124 2.95111 17.3418 2.95416 17.2231C2.9557 17.1638 2.95736 17.1176 2.95862 17.0866C2.95925 17.0711 2.95977 17.0594 2.96013 17.0519L2.96036 17.0472C2.96043 17.0457 2.96049 17.0445 2.96054 17.0436L2.96062 17.0419L2.96063 17.0418C2.97378 16.7963 2.7897 16.5864 2.54947 16.573C2.30925 16.5596 2.10385 16.7476 2.09069 16.9931L2.52566 17.0174C2.09069 16.9931 2.09069 16.9932 2.09068 16.9933L2.09061 16.9946L2.09045 16.9978C2.09032 17.0004 2.09014 17.0041 2.08991 17.0089C2.08946 17.0184 2.08884 17.0321 2.08813 17.0497C2.0867 17.0848 2.08488 17.1356 2.08323 17.1997C2.07993 17.3278 2.07727 17.5097 2.07974 17.7275C2.08465 18.1613 2.10997 18.7456 2.19337 19.3335C2.27557 19.9129 2.41939 20.5357 2.68185 21.0224C2.94835 21.5165 3.38733 21.9484 4.05425 21.9296C4.47601 21.9178 5.10092 21.9354 5.84861 21.9565L5.86372 21.9569C6.61147 21.978 7.46933 22.002 8.3289 21.9999C9.18751 21.9978 10.0571 21.9698 10.8293 21.8856C11.5908 21.8025 12.301 21.6605 12.8147 21.4076C13.5705 21.0355 14.046 20.5991 14.3419 20.1884C14.5123 20.5856 14.7178 20.9817 14.9629 21.4001C15.0864 21.611 15.3539 21.6797 15.5604 21.5534C15.7668 21.4272 15.834 21.1539 15.7104 20.9429C15.1897 20.0541 14.8813 19.31 14.7038 18.4341C14.5241 17.5477 14.4742 16.5065 14.4976 15.0134C14.5015 14.7677 14.3096 14.5652 14.069 14.5613Z" stroke="#6575F0" stroke-width="0.3" stroke-linecap="round" stroke-linejoin="round"/>
</svg>
