<svg width="24" height="24" viewBox="0 0 24 24" fill="none" xmlns="http://www.w3.org/2000/svg">
<path d="M15.9591 2C15.7669 3.82264 15.5299 4.72343 14.8161 6.06215M11.4689 6.80577C9.99235 4.53588 10.172 3.57233 11.294 2.09989M14.1747 20.2797C14.8183 20.0538 14.9529 19.7862 14.9328 19.1476M15.5626 4.53052C16.4014 6.59922 16.8571 9.00333 16.9854 10.0133C17.1137 11.0233 16.0291 17.283 16.1224 17.6604C16.2157 18.0377 17.1253 19.8579 16.9854 20.8568C16.8454 21.8557 15.4459 21.8557 15.4459 21.8557C15.4459 21.8557 14.3613 21.323 13.2067 21.6115C12.0521 21.9001 11.7722 22 9.04314 22C6.31409 22 7.10715 21.0899 7.10715 21.0899C7.65788 20.4144 8.1496 20.6709 9.04314 20.5905C12.0744 20.254 12.8102 18.6149 13.0084 17.6604C13.2067 16.7059 12.227 13.0544 11.8538 11.0233C11.4806 8.99223 11.1541 7.63818 11.504 6.96115C11.8538 6.28413 12.0988 5.90677 12.0988 5.90677" stroke="#6575F0" stroke-linecap="round" stroke-linejoin="round"/>
</svg>
