<svg width="24" height="24" viewBox="0 0 24 24" fill="none" xmlns="http://www.w3.org/2000/svg">
<path d="M7.72442 14.9083C7.34787 13.8333 7.00065 13.2276 6.56402 12.8968C6.14463 12.5791 5.58168 12.4718 4.64069 12.566C4.45514 12.5846 4.28935 12.4523 4.27039 12.2705C4.25143 12.0887 4.38647 11.9263 4.57203 11.9077C5.57638 11.8072 6.35352 11.9009 6.9772 12.3734C7.58365 12.8328 7.9825 13.6065 8.36329 14.6935C8.42383 14.8664 8.32989 15.0546 8.15347 15.1139C7.97705 15.1732 7.78496 15.0812 7.72442 14.9083Z" fill="#6575F0"/>
<path d="M16.9034 15.3458C17.0492 15.2318 17.2617 15.2553 17.378 15.3981C17.4943 15.5409 17.4704 15.7491 17.3246 15.8631C16.0303 16.8747 14.935 17.4631 13.742 17.5536C12.5511 17.6441 11.3272 17.2335 9.78663 16.4023C9.62326 16.3142 9.56376 16.113 9.65374 15.9529C9.74372 15.7929 9.94911 15.7346 10.1125 15.8227C11.6182 16.6351 12.6988 16.9692 13.6898 16.8939C14.6786 16.8188 15.6425 16.3313 16.9034 15.3458Z" fill="#6575F0"/>
<path fill-rule="evenodd" clip-rule="evenodd" d="M13.0908 4.28199C13.7138 4.13489 14.233 4.01987 14.7359 4.00234C15.2515 3.98437 15.7391 4.06853 16.3126 4.29718C16.3594 4.31585 16.4014 4.34457 16.4353 4.38123C20.2208 8.4658 22.1211 11.0038 22.9944 15.6269C23.0156 15.7395 22.976 15.8548 22.8896 15.9318C21.1428 17.489 19.5232 18.515 17.4374 19.145C15.3624 19.7718 12.8474 20 9.32237 20C9.31837 20 9.31436 19.9999 9.31036 19.9998C6.41247 19.8988 4.38221 19.442 3.04766 18.4678C1.68869 17.4757 1.11209 15.9954 1.00051 14.0157C0.999918 14.0051 0.999842 13.9945 1.00028 13.9839C1.05801 12.5982 1.60118 11.5673 2.41539 10.8962C3.22373 10.2299 4.27178 9.94058 5.30704 9.9802C7.11961 10.0496 8.97756 11.1404 9.51581 13.1134C10.484 11.8872 11.8119 11.2412 13.1916 11.1403C14.5631 11.0401 15.9709 11.4792 17.1133 12.3954C17.025 11.4288 16.6369 10.2982 15.5943 8.06816C15.2725 8.13226 14.9872 8.16701 14.6967 8.16747C14.3272 8.16805 13.9654 8.11312 13.5251 8.00929C13.4973 8.00273 13.4704 7.99273 13.4452 7.97954C12.9221 7.70615 12.6234 7.43668 12.1301 6.87555C12.0764 6.81445 12.0473 6.73623 12.0483 6.65559C12.0566 5.98697 12.2546 5.48506 12.8782 4.43702C12.9245 4.35911 13.0013 4.30312 13.0908 4.28199ZM22.2952 15.5661C21.4461 11.2617 19.6602 8.84987 15.9878 4.88271C15.5266 4.70729 15.1517 4.64997 14.7599 4.66363C14.3676 4.6773 13.9494 4.76182 13.3896 4.89228C12.8898 5.7449 12.7527 6.1247 12.7279 6.54081C13.1249 6.98435 13.3544 7.17741 13.7255 7.37584C14.1153 7.46585 14.4093 7.50622 14.6956 7.50576C14.9927 7.50529 15.2976 7.4609 15.7097 7.36563C15.8659 7.32951 16.0265 7.40609 16.0938 7.54882C17.5155 10.5621 17.8709 11.778 17.8011 13.1863C17.7945 13.3192 17.7074 13.4353 17.5799 13.481C17.4524 13.5267 17.3093 13.4932 17.2168 13.3959C16.1255 12.2489 14.6502 11.6972 13.2418 11.8002C11.8402 11.9027 10.4842 12.6544 9.61645 14.1601C9.54305 14.2874 9.393 14.3525 9.24742 14.32C9.10184 14.2876 8.9953 14.1653 8.98539 14.0194C8.84259 11.9155 7.07891 10.7102 5.28068 10.6414C4.38611 10.6072 3.51037 10.8584 2.85024 11.4025C2.19878 11.9395 1.73003 12.7839 1.67584 13.9952C1.78349 15.8587 2.31675 17.109 3.45124 17.9372C4.61259 18.785 6.46433 19.238 9.32837 19.3383C12.8309 19.338 15.2629 19.1094 17.2384 18.5127C19.1502 17.9352 20.6545 17.0068 22.2952 15.5661Z" fill="#6575F0"/>
<path d="M7.72442 14.9083C7.34787 13.8333 7.00065 13.2276 6.56402 12.8968C6.14463 12.5791 5.58168 12.4718 4.64069 12.566C4.45514 12.5846 4.28935 12.4523 4.27039 12.2705C4.25143 12.0887 4.38647 11.9263 4.57203 11.9077C5.57638 11.8072 6.35352 11.9009 6.9772 12.3734C7.58365 12.8328 7.9825 13.6065 8.36329 14.6935C8.42383 14.8664 8.32989 15.0546 8.15347 15.1139C7.97705 15.1732 7.78496 15.0812 7.72442 14.9083Z" stroke="#6575F0" stroke-width="0.3" stroke-linecap="round" stroke-linejoin="round"/>
<path d="M16.9034 15.3458C17.0492 15.2318 17.2617 15.2553 17.378 15.3981C17.4943 15.5409 17.4704 15.7491 17.3246 15.8631C16.0303 16.8747 14.935 17.4631 13.742 17.5536C12.5511 17.6441 11.3272 17.2335 9.78663 16.4023C9.62326 16.3142 9.56376 16.113 9.65374 15.9529C9.74372 15.7929 9.94911 15.7346 10.1125 15.8227C11.6182 16.6351 12.6988 16.9692 13.6898 16.8939C14.6786 16.8188 15.6425 16.3313 16.9034 15.3458Z" stroke="#6575F0" stroke-width="0.3" stroke-linecap="round" stroke-linejoin="round"/>
<path fill-rule="evenodd" clip-rule="evenodd" d="M13.0908 4.28199C13.7138 4.13489 14.233 4.01987 14.7359 4.00234C15.2515 3.98437 15.7391 4.06853 16.3126 4.29718C16.3594 4.31585 16.4014 4.34457 16.4353 4.38123C20.2208 8.4658 22.1211 11.0038 22.9944 15.6269C23.0156 15.7395 22.976 15.8548 22.8896 15.9318C21.1428 17.489 19.5232 18.515 17.4374 19.145C15.3624 19.7718 12.8474 20 9.32237 20C9.31837 20 9.31436 19.9999 9.31036 19.9998C6.41247 19.8988 4.38221 19.442 3.04766 18.4678C1.68869 17.4757 1.11209 15.9954 1.00051 14.0157C0.999918 14.0051 0.999842 13.9945 1.00028 13.9839C1.05801 12.5982 1.60118 11.5673 2.41539 10.8962C3.22373 10.2299 4.27178 9.94058 5.30704 9.9802C7.11961 10.0496 8.97756 11.1404 9.51581 13.1134C10.484 11.8872 11.8119 11.2412 13.1916 11.1403C14.5631 11.0401 15.9709 11.4792 17.1133 12.3954C17.025 11.4288 16.6369 10.2982 15.5943 8.06816C15.2725 8.13226 14.9872 8.16701 14.6967 8.16747C14.3272 8.16805 13.9654 8.11312 13.5251 8.00929C13.4973 8.00273 13.4704 7.99273 13.4452 7.97954C12.9221 7.70615 12.6234 7.43668 12.1301 6.87555C12.0764 6.81445 12.0473 6.73623 12.0483 6.65559C12.0566 5.98697 12.2546 5.48506 12.8782 4.43702C12.9245 4.35911 13.0013 4.30312 13.0908 4.28199ZM22.2952 15.5661C21.4461 11.2617 19.6602 8.84987 15.9878 4.88271C15.5266 4.70729 15.1517 4.64997 14.7599 4.66363C14.3676 4.6773 13.9494 4.76182 13.3896 4.89228C12.8898 5.7449 12.7527 6.1247 12.7279 6.54081C13.1249 6.98435 13.3544 7.17741 13.7255 7.37584C14.1153 7.46585 14.4093 7.50622 14.6956 7.50576C14.9927 7.50529 15.2976 7.4609 15.7097 7.36563C15.8659 7.32951 16.0265 7.40609 16.0938 7.54882C17.5155 10.5621 17.8709 11.778 17.8011 13.1863C17.7945 13.3192 17.7074 13.4353 17.5799 13.481C17.4524 13.5267 17.3093 13.4932 17.2168 13.3959C16.1255 12.2489 14.6502 11.6972 13.2418 11.8002C11.8402 11.9027 10.4842 12.6544 9.61645 14.1601C9.54305 14.2874 9.393 14.3525 9.24742 14.32C9.10184 14.2876 8.9953 14.1653 8.98539 14.0194C8.84259 11.9155 7.07891 10.7102 5.28068 10.6414C4.38611 10.6072 3.51037 10.8584 2.85024 11.4025C2.19878 11.9395 1.73003 12.7839 1.67584 13.9952C1.78349 15.8587 2.31675 17.109 3.45124 17.9372C4.61259 18.785 6.46433 19.238 9.32837 19.3383C12.8309 19.338 15.2629 19.1094 17.2384 18.5127C19.1502 17.9352 20.6545 17.0068 22.2952 15.5661Z" stroke="#6575F0" stroke-width="0.3" stroke-linecap="round" stroke-linejoin="round"/>
</svg>
