<svg width="24" height="24" viewBox="0 0 24 24" fill="none" xmlns="http://www.w3.org/2000/svg">
<path d="M13.7398 11.2427C13.7406 11.0724 13.8772 10.9349 14.0449 10.9357C14.2126 10.9366 14.3478 11.0753 14.347 11.2457C14.3253 15.8365 14.1048 18.0543 12.85 20.3013C12.7673 20.4495 12.5819 20.5015 12.4361 20.4174C12.2902 20.3333 12.2391 20.1451 12.3218 19.9969C13.4902 17.9046 13.718 15.8372 13.7398 11.2427Z" fill="#6575F0"/>
<path fill-rule="evenodd" clip-rule="evenodd" d="M13.5381 2.11144C13.4805 2.04084 13.3948 2 13.3045 2H7.31263C7.17724 2 7.06254 2.09002 7.02337 2.21436C7.00834 2.24951 7 2.28829 7 2.32905L7.00013 11.563C7.00013 11.5891 7.00356 11.6145 7.00999 11.6385C7.04828 12.6736 7.40756 14.5764 7.83256 16.5117C8.26334 18.4731 8.76949 20.5016 9.10435 21.7714C9.13992 21.9062 9.26021 22 9.39765 22H14.6507C14.7671 22 14.8733 21.9323 14.924 21.8258C17.8521 15.6732 17.23 10.103 15.8168 6.28223C15.1413 4.456 14.2829 3.02278 13.5381 2.11144ZM13.1603 2.61697H7.56681L7.56693 10.8901C8.74549 9.74501 11.293 7.80943 15.1416 6.21787C14.5342 4.65765 13.7997 3.42743 13.1603 2.61697ZM15.355 6.79571C16.6304 10.439 17.1357 15.6348 14.4593 21.383H9.63094C9.29925 20.113 8.82881 18.2147 8.42528 16.3773C8.01168 14.494 7.67549 12.7054 7.62141 11.7145C8.4664 10.7641 11.0694 8.57068 15.355 6.79571Z" fill="#6575F0"/>
<path d="M13.7398 11.2427C13.7406 11.0724 13.8772 10.9349 14.0449 10.9357C14.2126 10.9366 14.3478 11.0753 14.347 11.2457C14.3253 15.8365 14.1048 18.0543 12.85 20.3013C12.7673 20.4495 12.5819 20.5015 12.4361 20.4174C12.2902 20.3333 12.2391 20.1451 12.3218 19.9969C13.4902 17.9046 13.718 15.8372 13.7398 11.2427Z" stroke="#6575F0" stroke-width="0.3" stroke-linecap="round" stroke-linejoin="round"/>
<path fill-rule="evenodd" clip-rule="evenodd" d="M13.5381 2.11144C13.4805 2.04084 13.3948 2 13.3045 2H7.31263C7.17724 2 7.06254 2.09002 7.02337 2.21436C7.00834 2.24951 7 2.28829 7 2.32905L7.00013 11.563C7.00013 11.5891 7.00356 11.6145 7.00999 11.6385C7.04828 12.6736 7.40756 14.5764 7.83256 16.5117C8.26334 18.4731 8.76949 20.5016 9.10435 21.7714C9.13992 21.9062 9.26021 22 9.39765 22H14.6507C14.7671 22 14.8733 21.9323 14.924 21.8258C17.8521 15.6732 17.23 10.103 15.8168 6.28223C15.1413 4.456 14.2829 3.02278 13.5381 2.11144ZM13.1603 2.61697H7.56681L7.56693 10.8901C8.74549 9.74501 11.293 7.80943 15.1416 6.21787C14.5342 4.65765 13.7997 3.42743 13.1603 2.61697ZM15.355 6.79571C16.6304 10.439 17.1357 15.6348 14.4593 21.383H9.63094C9.29925 20.113 8.82881 18.2147 8.42528 16.3773C8.01168 14.494 7.67549 12.7054 7.62141 11.7145C8.4664 10.7641 11.0694 8.57068 15.355 6.79571Z" stroke="#6575F0" stroke-width="0.3" stroke-linecap="round" stroke-linejoin="round"/>
</svg>
