<svg width="24" height="24" viewBox="0 0 24 24" fill="none" xmlns="http://www.w3.org/2000/svg">
<path d="M18.6367 20L13.1305 14.4931C10.681 16.2345 7.30573 15.8085 5.36572 13.5133C3.42571 11.218 3.56816 7.81918 5.69342 5.69429C7.81813 3.56846 11.2175 3.42541 13.5133 5.3652C15.8091 7.30499 16.2353 10.6804 14.4938 13.1299L20 18.6368L18.6377 19.999L18.6367 20ZM9.78047 5.92742C7.95344 5.92701 6.37719 7.20942 6.00605 8.99825C5.6349 10.7871 6.57087 12.5907 8.24727 13.317C9.92368 14.0434 11.8798 13.4929 12.9312 11.9989C13.9827 10.5049 13.8406 8.47789 12.5909 7.14519L13.1738 7.72323L12.5167 7.06811L12.5052 7.05655C11.7843 6.33127 10.8031 5.92466 9.78047 5.92742Z" fill="#2E2C2F"/>
</svg>
