<svg width="24" height="24" viewBox="0 0 24 24" fill="none" xmlns="http://www.w3.org/2000/svg">
<path d="M9.7042 5.01322C9.93056 4.95572 10.161 5.09114 10.219 5.31569L9.80915 5.4198C10.219 5.31569 10.2191 5.31597 10.2191 5.31626L10.2193 5.31685L10.2196 5.31809L10.2203 5.32081C10.2208 5.32272 10.2213 5.32484 10.2218 5.32716C10.2229 5.33179 10.2241 5.33724 10.2254 5.34346C10.228 5.3559 10.2309 5.37149 10.2338 5.38997C10.2395 5.42684 10.2449 5.4757 10.2467 5.53423C10.2502 5.65106 10.2389 5.80934 10.183 5.98806C10.0668 6.35965 9.77553 6.76318 9.16662 7.06383C8.99353 7.1493 8.825 7.23662 8.6527 7.32589C7.8157 7.75957 6.88977 8.23933 4.91981 8.7762C3.80835 9.0791 3.24733 9.46552 2.91892 9.89178C2.58065 10.3308 2.44321 10.8653 2.2906 11.5931C2.14608 12.2824 2.03417 13.4689 1.95838 14.5056C1.92083 15.0192 1.89265 15.4882 1.87386 15.829C1.86447 15.9993 1.85743 16.1374 1.85274 16.2328C1.8504 16.2805 1.84865 16.3175 1.84748 16.3425C1.8469 16.355 1.84646 16.3645 1.84618 16.3709L1.84576 16.3802L1.84575 16.3802C1.84575 16.3803 1.84575 16.3803 1.42308 16.3618C1.00042 16.3434 1.00042 16.3434 1.00042 16.3434L1.00223 16.3038C1.00343 16.2781 1.00521 16.2404 1.00759 16.192C1.01235 16.0951 1.01948 15.9553 1.02897 15.7831C1.04795 15.4389 1.07644 14.9647 1.11444 14.4449C1.18975 13.4148 1.30449 12.1742 1.46217 11.4222C1.61176 10.7088 1.77652 9.99225 2.24664 9.38207C2.72661 8.75909 3.48017 8.29805 4.69565 7.9668C6.57577 7.45442 7.43182 7.01111 8.25861 6.58296L8.25865 6.58294L8.25872 6.5829L8.25881 6.58285C8.4339 6.49219 8.60767 6.4022 8.78958 6.31238C9.20815 6.10571 9.3324 5.87508 9.37485 5.73935C9.39829 5.66441 9.40214 5.60073 9.4009 5.55902C9.40028 5.53828 9.39842 5.52373 9.39738 5.517C9.39721 5.51587 9.39706 5.51498 9.39695 5.51434C9.34523 5.2929 9.48106 5.0699 9.7042 5.01322Z" fill="#6575F0"/>
<path d="M1.42308 16.3618L1.84575 16.3802C1.8355 16.6118 1.63795 16.7913 1.40452 16.7811C1.17109 16.771 0.990163 16.575 1.00042 16.3434L1.42308 16.3618Z" fill="#6575F0"/>
<path d="M5.29278 13.2722C5.20825 13.0561 4.96314 12.9489 4.7453 13.0327C4.52747 13.1166 4.41941 13.3597 4.50393 13.5758C4.83323 14.4176 5.08231 15.093 5.27943 15.684C5.16735 16.8653 4.98798 17.4042 4.52672 18.2453C4.41505 18.4489 4.49092 18.7037 4.69617 18.8145C4.90142 18.9253 5.15833 18.85 5.26999 18.6464C5.49723 18.2321 5.66508 17.8749 5.79225 17.4973C5.87625 17.8664 5.94968 18.2413 6.02292 18.6532C6.06352 18.8814 6.28297 19.0338 6.51307 18.9935C6.74318 18.9533 6.8968 18.7356 6.85621 18.5073C6.66752 17.4464 6.47424 16.6072 6.11086 15.5051C5.90302 14.8747 5.64031 14.1606 5.29278 13.2722Z" fill="#6575F0"/>
<path d="M18.7072 13.2722C18.7918 13.0561 19.0369 12.9489 19.2547 13.0327C19.4725 13.1166 19.5806 13.3597 19.4961 13.5758C19.1668 14.4176 18.9177 15.093 18.7206 15.684C18.8327 16.8653 19.012 17.4042 19.4733 18.2453C19.5849 18.4489 19.5091 18.7037 19.3038 18.8145C19.0986 18.9253 18.8417 18.85 18.73 18.6464C18.5028 18.2321 18.3349 17.8749 18.2078 17.4973C18.1238 17.8664 18.0503 18.2413 17.9771 18.6532C17.9365 18.8814 17.717 19.0338 17.4869 18.9935C17.2568 18.9533 17.1032 18.7356 17.1438 18.5073C17.3325 17.4464 17.5258 16.6072 17.8891 15.5051C18.097 14.8747 18.3597 14.1606 18.7072 13.2722Z" fill="#6575F0"/>
<path d="M8.04134 9.42716C7.8131 9.37756 7.6686 9.1538 7.71859 8.92738C7.76859 8.70096 7.99415 8.55761 8.2224 8.60721L11.3955 9.29671C11.6237 9.3463 11.7682 9.57006 11.7182 9.79648C11.6682 10.0229 11.4427 10.1663 11.2144 10.1167L8.04134 9.42716Z" fill="#6575F0"/>
<path d="M14.2958 5.01322C14.0694 4.95572 13.839 5.09114 13.781 5.31569L14.1909 5.4198C13.781 5.31569 13.7809 5.31597 13.7809 5.31626L13.7807 5.31685L13.7804 5.31809L13.7797 5.32081L13.7791 5.32339C13.7788 5.32458 13.7785 5.32584 13.7782 5.32716C13.7771 5.33179 13.7759 5.33724 13.7746 5.34346C13.772 5.3559 13.7691 5.37149 13.7662 5.38997C13.7605 5.42684 13.7551 5.4757 13.7533 5.53423C13.7498 5.65106 13.7611 5.80934 13.817 5.98806C13.9332 6.35965 14.2245 6.76318 14.8334 7.06383C15.0065 7.1493 15.175 7.23662 15.3473 7.32589C16.1843 7.75957 17.1102 8.23933 19.0802 8.7762C20.1917 9.0791 20.7527 9.46552 21.0811 9.89178C21.4194 10.3308 21.5568 10.8653 21.7094 11.5931C21.8539 12.2824 21.9658 13.4689 22.0416 14.5056C22.0792 15.0192 22.1073 15.4882 22.1261 15.829C22.1355 15.9993 22.1426 16.1374 22.1473 16.2328C22.1496 16.2805 22.1514 16.3175 22.1525 16.3425C22.1531 16.355 22.1535 16.3645 22.1538 16.3709L22.1542 16.3802L22.1542 16.3802C22.1542 16.3803 22.1542 16.3803 22.5769 16.3618L22.1542 16.3802C22.1645 16.6118 22.362 16.7913 22.5955 16.7811C22.8289 16.771 23.0098 16.575 22.9996 16.3434L22.5769 16.3618C22.9996 16.3434 22.9996 16.3434 22.9996 16.3434L22.9991 16.3331C22.9988 16.3265 22.9984 16.3166 22.9978 16.3038C22.9966 16.2781 22.9948 16.2404 22.9924 16.192C22.9876 16.0951 22.9805 15.9553 22.971 15.7831C22.952 15.4389 22.9236 14.9647 22.8856 14.4449C22.8103 13.4148 22.6955 12.1742 22.5378 11.4222C22.3882 10.7088 22.2235 9.99225 21.7534 9.38207C21.2734 8.75909 20.5198 8.29805 19.3043 7.9668C17.4242 7.45442 16.5682 7.01111 15.7414 6.58296L15.7414 6.58294L15.7413 6.58292C15.5662 6.49223 15.3924 6.40222 15.2104 6.31238C14.7918 6.10571 14.6676 5.87508 14.6251 5.73935C14.6017 5.66441 14.5979 5.60073 14.5991 5.55902C14.5997 5.53828 14.6016 5.52373 14.6026 5.517C14.6028 5.51587 14.6029 5.51498 14.6031 5.51434C14.6548 5.2929 14.5189 5.0699 14.2958 5.01322Z" fill="#6575F0"/>
<path d="M15.9587 9.42716C16.1869 9.37756 16.3314 9.1538 16.2814 8.92738C16.2314 8.70096 16.0058 8.55761 15.7776 8.60721L12.6045 9.29671C12.3763 9.3463 12.2318 9.57006 12.2818 9.79648C12.3318 10.0229 12.5573 10.1663 12.7856 10.1167L15.9587 9.42716Z" fill="#6575F0"/>
<path d="M1.84575 16.3803L1.84576 16.3802L1.84618 16.3709C1.84646 16.3645 1.8469 16.355 1.84748 16.3425C1.84865 16.3175 1.8504 16.2805 1.85274 16.2328C1.85743 16.1374 1.86447 15.9993 1.87386 15.829C1.89265 15.4882 1.92083 15.0192 1.95838 14.5056C2.03417 13.4689 2.14608 12.2824 2.2906 11.5931C2.44321 10.8653 2.58065 10.3308 2.91892 9.89178C3.24733 9.46552 3.80835 9.0791 4.91981 8.7762C6.88977 8.23933 7.8157 7.75957 8.6527 7.32589C8.825 7.23662 8.99353 7.1493 9.16662 7.06383C9.77553 6.76318 10.0668 6.35965 10.183 5.98806C10.2389 5.80934 10.2502 5.65106 10.2467 5.53423C10.2449 5.4757 10.2395 5.42684 10.2338 5.38997C10.2309 5.37149 10.228 5.3559 10.2254 5.34346C10.2241 5.33724 10.2229 5.33179 10.2218 5.32716C10.2213 5.32484 10.2208 5.32272 10.2203 5.32081L10.2196 5.31809L10.2193 5.31685L10.2191 5.31626C10.2191 5.31597 10.219 5.31569 9.80915 5.4198L10.219 5.31569C10.161 5.09114 9.93056 4.95572 9.7042 5.01322C9.48106 5.0699 9.34523 5.2929 9.39695 5.51434C9.39706 5.51498 9.39721 5.51587 9.39738 5.517C9.39842 5.52373 9.40028 5.53828 9.4009 5.55902C9.40214 5.60073 9.39829 5.66441 9.37485 5.73935C9.3324 5.87508 9.20815 6.10571 8.78958 6.31238C8.60767 6.4022 8.43389 6.49219 8.25881 6.58285L8.25872 6.5829L8.25865 6.58294L8.25861 6.58296C7.43182 7.01111 6.57577 7.45442 4.69565 7.9668C3.48017 8.29805 2.72661 8.75909 2.24664 9.38207C1.77652 9.99225 1.61176 10.7088 1.46217 11.4222C1.30449 12.1742 1.18975 13.4148 1.11444 14.4449C1.07644 14.9647 1.04795 15.4389 1.02897 15.7831C1.01948 15.9553 1.01235 16.0951 1.00759 16.192C1.00521 16.2404 1.00343 16.2781 1.00223 16.3038L1.00042 16.3434C1.00042 16.3434 1.00042 16.3434 1.42308 16.3618M1.84575 16.3803C1.84575 16.3803 1.84575 16.3803 1.42308 16.3618M1.84575 16.3803L1.42308 16.3618M1.84575 16.3803C1.8355 16.6118 1.63795 16.7913 1.40452 16.7811C1.17109 16.771 0.990163 16.575 1.00042 16.3434L1.42308 16.3618M22.1542 16.3803L22.1542 16.3802L22.1538 16.3709C22.1535 16.3645 22.1531 16.355 22.1525 16.3425C22.1514 16.3175 22.1496 16.2805 22.1473 16.2328C22.1426 16.1374 22.1355 15.9993 22.1261 15.829C22.1073 15.4882 22.0792 15.0192 22.0416 14.5056C21.9658 13.4689 21.8539 12.2824 21.7094 11.5931C21.5568 10.8653 21.4194 10.3308 21.0811 9.89178C20.7527 9.46552 20.1917 9.0791 19.0802 8.7762C17.1102 8.23933 16.1843 7.75957 15.3473 7.32589C15.175 7.23662 15.0065 7.1493 14.8334 7.06383C14.2245 6.76318 13.9332 6.35965 13.817 5.98806C13.7611 5.80934 13.7498 5.65106 13.7533 5.53423C13.7551 5.4757 13.7605 5.42684 13.7662 5.38997C13.7691 5.37149 13.772 5.3559 13.7746 5.34346C13.7759 5.33724 13.7771 5.33179 13.7782 5.32716C13.7785 5.32584 13.7788 5.32458 13.7791 5.32339L13.7797 5.32081L13.7804 5.31809L13.7807 5.31685L13.7809 5.31626C13.7809 5.31597 13.781 5.31569 14.1909 5.4198L13.781 5.31569C13.839 5.09114 14.0694 4.95572 14.2958 5.01322C14.5189 5.0699 14.6548 5.2929 14.6031 5.51434C14.6029 5.51498 14.6028 5.51587 14.6026 5.517C14.6016 5.52373 14.5997 5.53828 14.5991 5.55902C14.5979 5.60073 14.6017 5.66441 14.6251 5.73935C14.6676 5.87508 14.7918 6.10571 15.2104 6.31238C15.3924 6.40222 15.5662 6.49223 15.7413 6.58292L15.7414 6.58294L15.7414 6.58296C16.5682 7.01111 17.4242 7.45442 19.3043 7.9668C20.5198 8.29805 21.2734 8.75909 21.7534 9.38207C22.2235 9.99225 22.3882 10.7088 22.5378 11.4222C22.6955 12.1742 22.8103 13.4148 22.8856 14.4449C22.9236 14.9647 22.952 15.4389 22.971 15.7831C22.9805 15.9553 22.9877 16.0951 22.9924 16.192C22.9948 16.2404 22.9966 16.2781 22.9978 16.3038C22.9984 16.3166 22.9988 16.3265 22.9991 16.3331L22.9996 16.3434C22.9996 16.3434 22.9996 16.3434 22.5769 16.3618M22.1542 16.3803C22.1542 16.3803 22.1542 16.3803 22.5769 16.3618M22.1542 16.3803L22.5769 16.3618M22.1542 16.3803C22.1645 16.6118 22.362 16.7913 22.5955 16.7811C22.8289 16.771 23.0098 16.575 22.9996 16.3434L22.5769 16.3618M4.7453 13.0327C4.96314 12.9489 5.20825 13.0561 5.29278 13.2722C5.64031 14.1606 5.90301 14.8747 6.11086 15.5051C6.47424 16.6072 6.66752 17.4464 6.85621 18.5073C6.8968 18.7356 6.74318 18.9533 6.51307 18.9935C6.28297 19.0338 6.06352 18.8814 6.02292 18.6532C5.94968 18.2413 5.87625 17.8664 5.79225 17.4973C5.66508 17.8749 5.49723 18.2321 5.26999 18.6464C5.15833 18.85 4.90142 18.9253 4.69617 18.8145C4.49092 18.7037 4.41505 18.4489 4.52672 18.2453C4.98798 17.4042 5.16735 16.8653 5.27943 15.684C5.08231 15.093 4.83323 14.4176 4.50393 13.5758C4.41941 13.3597 4.52747 13.1166 4.7453 13.0327ZM19.2547 13.0327C19.0369 12.9489 18.7918 13.0561 18.7072 13.2722C18.3597 14.1606 18.097 14.8747 17.8891 15.5051C17.5258 16.6072 17.3325 17.4464 17.1438 18.5073C17.1032 18.7356 17.2568 18.9533 17.4869 18.9935C17.717 19.0338 17.9365 18.8814 17.9771 18.6532C18.0503 18.2413 18.1238 17.8664 18.2078 17.4973C18.3349 17.8749 18.5028 18.2321 18.73 18.6464C18.8417 18.85 19.0986 18.9253 19.3038 18.8145C19.5091 18.7037 19.5849 18.4489 19.4733 18.2453C19.012 17.4042 18.8327 16.8653 18.7206 15.684C18.9177 15.093 19.1668 14.4176 19.4961 13.5758C19.5806 13.3597 19.4725 13.1166 19.2547 13.0327ZM7.71859 8.92738C7.6686 9.1538 7.8131 9.37756 8.04134 9.42716L11.2144 10.1167C11.4427 10.1663 11.6682 10.0229 11.7182 9.79649C11.7682 9.57006 11.6237 9.3463 11.3955 9.29671L8.2224 8.60721C7.99415 8.55761 7.76859 8.70096 7.71859 8.92738ZM16.2814 8.92738C16.3314 9.1538 16.1869 9.37756 15.9587 9.42716L12.7856 10.1167C12.5573 10.1663 12.3318 10.0229 12.2818 9.79649C12.2318 9.57006 12.3763 9.3463 12.6045 9.29671L15.7776 8.60721C16.0058 8.55761 16.2314 8.70096 16.2814 8.92738Z" stroke="#6575F0" stroke-width="0.3" stroke-linecap="round" stroke-linejoin="round"/>
</svg>
