<svg width="18" height="18" viewBox="0 0 18 18" fill="none" xmlns="http://www.w3.org/2000/svg">
<path d="M9 14.25C7.76991 14.2653 6.55253 13.9998 5.4405 13.4737C4.57852 13.0532 3.80449 12.4723 3.15975 11.7622C2.47682 11.0281 1.9391 10.1712 1.575 9.237L1.5 9L1.57875 8.763C1.94311 7.82957 2.47968 6.97295 3.1605 6.23775C3.80501 5.52773 4.57878 4.9469 5.4405 4.52625C6.55253 4.00019 7.76991 3.73471 9 3.75C10.2301 3.73473 11.4475 4.00022 12.5595 4.52625C13.4215 4.9468 14.1955 5.52764 14.8403 6.23775C15.5245 6.97092 16.0624 7.82802 16.425 8.763L16.5 9L16.4213 9.237C15.2447 12.2998 12.2806 14.302 9 14.25ZM9 5.25C6.4469 5.17 4.10356 6.65632 3.08775 9C4.1034 11.3438 6.44684 12.8302 9 12.75C11.553 12.8298 13.8963 11.3435 14.9122 9C13.8978 6.65518 11.5536 5.16831 9 5.25ZM9 11.25C7.91799 11.2572 6.98203 10.498 6.76572 9.43783C6.54942 8.37764 7.1132 7.31252 8.11154 6.89525C9.10987 6.47797 10.2639 6.8251 10.8664 7.72388C11.4689 8.62266 11.3515 9.82206 10.5863 10.587C10.1672 11.0109 9.59607 11.2497 9 11.25Z" fill="#B2BAF8"/>
</svg>
