<svg width="24" height="24" viewBox="0 0 24 24" fill="none" xmlns="http://www.w3.org/2000/svg">
<path d="M5.32673 3.03801C5.5355 2.94252 5.78269 3.03316 5.87886 3.24046C7.06496 5.79733 7.72482 7.80275 7.64699 9.70157C7.59058 11.0777 7.14892 12.3644 6.30065 13.7374C8.52391 14.4072 10.2816 14.7475 12.0212 14.755C13.7546 14.7625 15.4947 14.4395 17.6826 13.7506C16.8159 12.3735 16.3644 11.0829 16.3069 9.70185C16.2277 7.80134 16.899 5.79485 18.1044 3.23813C18.2019 3.03143 18.4497 2.94231 18.6578 3.03909C18.866 3.13586 18.9557 3.38189 18.8583 3.58859C17.6621 6.1256 17.0681 7.97815 17.1385 9.66768C17.1934 10.9848 17.6547 12.2434 18.631 13.6836C18.666 13.7186 18.6951 13.7604 18.7161 13.8077C18.9578 14.1565 19.2295 14.5161 19.5327 14.89C19.5861 14.9559 19.6179 15.0365 19.6237 15.1209L19.999 20.5585C20.0147 20.7862 19.8416 20.9834 19.6123 20.999C19.3829 21.0146 19.1843 20.8427 19.1686 20.615L18.8022 15.3064C18.5733 15.0208 18.3605 14.7409 18.1636 14.4654C15.8203 15.2193 13.9285 15.5898 12.0176 15.5815C10.103 15.5733 8.1958 15.1849 5.82484 14.4571C5.62989 14.7346 5.41901 15.0166 5.19203 15.3044L4.83144 20.6145C4.81598 20.8422 4.61753 21.0144 4.3882 20.999C4.15887 20.9837 3.9855 20.7866 4.00096 20.5589L4.3702 15.1213C4.37587 15.0379 4.40691 14.9581 4.45921 14.8925C6.03341 12.9192 6.74671 11.3413 6.81531 9.66796C6.88463 7.97674 6.29966 6.12312 5.12284 3.58626C5.02668 3.37896 5.11796 3.1335 5.32673 3.03801Z" fill="#6575F0"/>
<path d="M12 10.4388C12.2809 10.4388 12.5087 10.2127 12.5087 9.93373C12.5087 9.65477 12.2809 9.42863 12 9.42863C11.7191 9.42863 11.4913 9.65477 11.4913 9.93373C11.4913 10.2127 11.7191 10.4388 12 10.4388Z" fill="#6575F0"/>
<path d="M10.8902 18.8878C10.6603 18.8878 10.474 19.0728 10.474 19.301V20.5867C10.474 20.815 10.6603 21 10.8902 21C11.12 21 11.3064 20.815 11.3064 20.5867V19.7143H12.6936V20.5867C12.6936 20.815 12.88 21 13.1098 21C13.3397 21 13.526 20.815 13.526 20.5867V19.301C13.526 19.0728 13.3397 18.8878 13.1098 18.8878H10.8902Z" fill="#6575F0"/>
<path d="M5.32673 3.03801C5.5355 2.94252 5.78269 3.03316 5.87886 3.24046C7.06496 5.79733 7.72482 7.80275 7.64699 9.70157C7.59058 11.0777 7.14892 12.3644 6.30065 13.7374C8.52391 14.4072 10.2816 14.7475 12.0212 14.755C13.7546 14.7625 15.4947 14.4395 17.6826 13.7506C16.8159 12.3735 16.3644 11.0829 16.3069 9.70185C16.2277 7.80134 16.899 5.79485 18.1044 3.23813C18.2019 3.03143 18.4497 2.94231 18.6578 3.03909C18.866 3.13586 18.9557 3.38189 18.8583 3.58859C17.6621 6.1256 17.0681 7.97815 17.1385 9.66768C17.1934 10.9848 17.6547 12.2434 18.631 13.6836C18.666 13.7186 18.6951 13.7604 18.7161 13.8077C18.9578 14.1565 19.2295 14.5161 19.5327 14.89C19.5861 14.9559 19.6179 15.0365 19.6237 15.1209L19.999 20.5585C20.0147 20.7862 19.8416 20.9834 19.6123 20.999C19.3829 21.0146 19.1843 20.8427 19.1686 20.615L18.8022 15.3064C18.5733 15.0208 18.3605 14.7409 18.1636 14.4654C15.8203 15.2193 13.9285 15.5898 12.0176 15.5815C10.103 15.5733 8.1958 15.1849 5.82484 14.4571C5.62989 14.7346 5.41901 15.0166 5.19203 15.3044L4.83144 20.6145C4.81598 20.8422 4.61753 21.0144 4.3882 20.999C4.15887 20.9837 3.9855 20.7866 4.00096 20.5589L4.3702 15.1213C4.37587 15.0379 4.40691 14.9581 4.45921 14.8925C6.03341 12.9192 6.74671 11.3413 6.81531 9.66796C6.88463 7.97674 6.29966 6.12312 5.12284 3.58626C5.02668 3.37896 5.11796 3.1335 5.32673 3.03801Z" stroke="#6575F0" stroke-width="0.3" stroke-linecap="round" stroke-linejoin="round"/>
<path d="M12 10.4388C12.2809 10.4388 12.5087 10.2127 12.5087 9.93373C12.5087 9.65477 12.2809 9.42863 12 9.42863C11.7191 9.42863 11.4913 9.65477 11.4913 9.93373C11.4913 10.2127 11.7191 10.4388 12 10.4388Z" stroke="#6575F0" stroke-width="0.3" stroke-linecap="round" stroke-linejoin="round"/>
<path d="M10.8902 18.8878C10.6603 18.8878 10.474 19.0728 10.474 19.301V20.5867C10.474 20.815 10.6603 21 10.8902 21C11.12 21 11.3064 20.815 11.3064 20.5867V19.7143H12.6936V20.5867C12.6936 20.815 12.88 21 13.1098 21C13.3397 21 13.526 20.815 13.526 20.5867V19.301C13.526 19.0728 13.3397 18.8878 13.1098 18.8878H10.8902Z" stroke="#6575F0" stroke-width="0.3" stroke-linecap="round" stroke-linejoin="round"/>
</svg>
